<?xml version="1.0" encoding="utf-8"?>
<!-- Generator: Adobe Illustrator 21.1.0, SVG Export Plug-In . SVG Version: 6.00 Build 0)  -->
<svg version="1.1" id="Layer_1" xmlns="http://www.w3.org/2000/svg" xmlns:xlink="http://www.w3.org/1999/xlink" x="0px" y="0px"
	 viewBox="0 0 87.9 39.7" style="enable-background:new 0 0 87.9 39.7;" xml:space="preserve">
<style type="text/css">
	.st0{fill:#FFFFFF;}
	.st1{fill:#1C1917;}
	.st2{fill-rule:evenodd;clip-rule:evenodd;fill:#1C1917;}
</style>
<g>
	<path class="st0" d="M82.9,38.8H5.2c-2,0-3.7-1.6-3.7-3.7V4.5c0-2,1.6-3.7,3.7-3.7h77.7c2,0,3.7,1.6,3.7,3.7v30.7
		C86.5,37.2,84.9,38.8,82.9,38.8z"/>
	<g>
		<path class="st1" d="M13.5,14.8V9.4h-1.9V8.2h5.3v1.2h-1.9v5.4H13.5z"/>
		<path class="st1" d="M16.7,12.4c0-1.4,1-2.5,2.5-2.5c1.6,0,2.6,1.2,2.6,2.5c0,1.4-1,2.5-2.6,2.5C17.7,15,16.7,13.8,16.7,12.4z
			 M20.5,12.4c0-0.8-0.4-1.4-1.2-1.4c-0.8,0-1.2,0.7-1.2,1.4c0,0.8,0.4,1.4,1.2,1.4C20,13.8,20.5,13.2,20.5,12.4z"/>
		<path class="st1" d="M22.9,16.1l0.6-0.9c0.4,0.4,0.9,0.6,1.5,0.6s1.3-0.3,1.3-1.2v-0.5c-0.4,0.5-0.9,0.8-1.5,0.8
			c-1.2,0-2.1-0.8-2.1-2.5c0-1.6,0.9-2.5,2.1-2.5c0.6,0,1.1,0.2,1.5,0.7V10h1.3v4.5c0,1.8-1.4,2.3-2.6,2.3
			C24.1,16.8,23.5,16.6,22.9,16.1z M26.3,13.1v-1.6c-0.2-0.3-0.7-0.6-1.1-0.6c-0.7,0-1.2,0.5-1.2,1.3c0,0.8,0.5,1.3,1.2,1.3
			C25.6,13.7,26.1,13.4,26.3,13.1z"/>
		<path class="st1" d="M28.8,12.4c0-1.4,1-2.5,2.5-2.5c1.4,0,2.4,1.1,2.4,2.7v0.3h-3.6c0.1,0.6,0.6,1.1,1.4,1.1c0.4,0,1-0.2,1.3-0.5
			l0.6,0.8c-0.5,0.4-1.2,0.7-2,0.7C29.9,15,28.8,14,28.8,12.4z M31.3,10.9c-0.8,0-1.1,0.6-1.2,1.1h2.4
			C32.4,11.5,32.1,10.9,31.3,10.9z"/>
		<path class="st1" d="M35.1,13.6v-2.5h-0.8V10h0.8V8.7h1.3V10h1v1.1h-1v2.2c0,0.3,0.2,0.5,0.4,0.5c0.2,0,0.4-0.1,0.4-0.1l0.3,1
			C37.4,14.8,37,15,36.5,15C35.6,15,35.1,14.5,35.1,13.6z"/>
		<path class="st1" d="M41.8,14.8v-2.9c0-0.7-0.3-0.9-0.9-0.9c-0.5,0-0.9,0.3-1.1,0.6v3.2h-1.3V8.2h1.3v2.5c0.3-0.4,0.9-0.8,1.7-0.8
			c1.1,0,1.6,0.6,1.6,1.5v3.4H41.8z"/>
		<path class="st1" d="M44.2,12.4c0-1.4,1-2.5,2.5-2.5c1.4,0,2.4,1.1,2.4,2.7v0.3h-3.6c0.1,0.6,0.6,1.1,1.4,1.1c0.4,0,1-0.2,1.3-0.5
			l0.6,0.8c-0.5,0.4-1.2,0.7-2,0.7C45.4,15,44.2,14,44.2,12.4z M46.7,10.9c-0.8,0-1.1,0.6-1.2,1.1h2.4
			C47.9,11.5,47.6,10.9,46.7,10.9z"/>
		<path class="st1" d="M50.3,14.8V10h1.3v0.7c0.3-0.4,0.9-0.8,1.5-0.8v1.2c-0.1,0-0.2,0-0.4,0c-0.4,0-1,0.2-1.2,0.5v3.2H50.3z"/>
		<path class="st1" d="M61.2,14.8l-1-3.3l-1,3.3h-1.4L56.4,10h1.3l0.9,3.2l1.1-3.2h1.1l1.1,3.2l0.9-3.2H64l-1.5,4.8H61.2z"/>
		<path class="st1" d="M64.8,8.7c0-0.4,0.3-0.8,0.8-0.8c0.4,0,0.8,0.3,0.8,0.8c0,0.4-0.3,0.8-0.8,0.8C65.2,9.5,64.8,9.2,64.8,8.7z
			 M64.9,14.8V10h1.3v4.8H64.9z"/>
		<path class="st1" d="M68,13.6v-2.5h-0.8V10H68V8.7h1.3V10h1v1.1h-1v2.2c0,0.3,0.2,0.5,0.4,0.5c0.2,0,0.4-0.1,0.4-0.1l0.3,1
			c-0.2,0.2-0.5,0.3-1.1,0.3C68.4,15,68,14.5,68,13.6z"/>
		<path class="st1" d="M74.6,14.8v-2.9c0-0.7-0.3-0.9-0.9-0.9c-0.5,0-0.9,0.3-1.1,0.6v3.2h-1.3V8.2h1.3v2.5c0.3-0.4,0.9-0.8,1.7-0.8
			c1.1,0,1.6,0.6,1.6,1.5v3.4H74.6z"/>
	</g>
	<g>
		<polygon class="st2" points="59.9,19.1 56.4,19.1 53.6,26.3 50.8,19.1 47.4,19.1 45.1,32.6 48.6,32.6 49.7,24.8 51.9,30.4 
			52.8,32.6 54.2,32.6 57.4,24.8 58.4,32.6 61.9,32.6 		"/>
		<path class="st2" d="M41.8,19.1c-1.1,0-2.1,0.9-2.1,2v4.7v-0.1v4.9c0,1.1,0.9,2,2.1,2c1.1,0,2.1-0.9,2.1-2v-4.9v0.1V21
			C43.9,20,43,19.1,41.8,19.1z"/>
		<polygon class="st2" points="71.5,19.1 71.5,19.1 67.7,19.1 67.7,19.1 67.7,19.1 62.5,32.5 66.2,32.5 67.1,30.2 71.9,30.2 
			72.8,32.5 76.5,32.5 		"/>
		<polygon class="st2" points="20.5,19.2 20.5,19.2 16.7,19.2 11.5,32.6 11.5,32.6 11.5,32.6 15.2,32.6 15.2,32.6 15.2,32.6 
			16.1,30.2 20.9,30.2 21.8,32.6 25.5,32.6 		"/>
		<path class="st2" d="M36.4,25.1L36.4,25.1h-4.5v2.5h2.7c-0.1,0.6-0.3,1.1-0.6,1.4c-0.5,0.5-1.2,0.7-2,0.7c-1,0-1.7-0.3-2.3-0.9
			c-0.8-0.8-1.1-1.8-1.1-3c0-0.6,0.1-1.1,0.3-1.7c0.6-1.5,1.6-2.2,3-2.2c0.7,0,1.3,0.2,1.8,0.6c0.4,0.3,0.7,0.7,0.9,1.3l3.1-1.3
			c-0.5-1.1-1.2-1.9-1.9-2.4C34.8,19.4,33.6,19,32,19c-2.3,0-4,0.7-5.3,2.2c-1.1,1.3-1.7,2.8-1.7,4.7c0,1.7,0.5,3.1,1.4,4.3
			c1.3,1.6,3,2.4,5.4,2.4c0.6,0,1.1-0.1,1.7-0.2l0,0c0.8-0.2,1.4-0.5,2.1-0.9c1.1-0.7,1.9-1.7,2.4-3.1c0.3-0.9,0.5-2,0.5-3.4
			L36.4,25.1z"/>
	</g>
</g>
</svg>
