<svg id="SvgjsSvg1011" xmlns="http://www.w3.org/2000/svg" version="1.1" xmlns:xlink="http://www.w3.org/1999/xlink" xmlns:svgjs="http://svgjs.com/svgjs" width="139" height="15" viewBox="0 0 139 15"><title>YOUROCK INC Copy</title><desc>Created with Avocode.</desc><defs id="SvgjsDefs1012"></defs><path id="SvgjsPath1013" d="M164.2 91.46C168.51 91.46 171.64999999999998 88.19999999999999 171.64999999999998 84.22999999999999C171.64999999999998 80.21 168.54999999999998 76.99999999999999 164.23999999999998 76.99999999999999C159.92 76.99999999999999 156.79 80.24999999999999 156.79 84.22999999999999C156.79 88.24 159.88 91.46 164.2 91.46ZM120.42 91.46C124.73 91.46 127.86 88.19999999999999 127.86 84.22999999999999C127.86 80.21 124.77 76.99999999999999 120.46 76.99999999999999C116.13999999999999 76.99999999999999 113.00999999999999 80.24999999999999 113.00999999999999 84.22999999999999C113.00999999999999 88.24 116.1 91.46 120.41999999999999 91.46ZM105.37 91.22L108.45 91.22L108.45 85.65L113.82000000000001 77.24000000000001L110.32000000000001 77.24000000000001L106.93 82.85000000000001L103.59 77.24000000000001L100 77.24000000000001L105.37 85.71000000000001ZM180.02 91.46C182.72 91.46 184.32000000000002 90.61999999999999 185.75 89.08L183.8 86.98C182.70000000000002 87.98 181.72 88.62 180.12 88.62C177.73000000000002 88.62 176.07 86.62 176.07 84.23C176.07 81.79 177.76999999999998 79.84 180.12 79.84C181.72 79.84 182.64000000000001 80.41 183.72 81.39L185.55 79.28C184.26000000000002 78 182.78 77 180.14000000000001 77C175.85000000000002 77 172.85000000000002 80.25 172.85000000000002 84.23C172.85000000000002 88.28 175.91000000000003 91.46000000000001 180.02 91.46000000000001ZM187.3 91.22L190.38000000000002 91.22L190.38000000000002 86.94L191.99000000000004 85.27L196.33000000000004 91.22L200.02000000000004 91.22L194.07000000000005 83.17L199.76000000000005 77.24000000000001L196.05000000000004 77.24000000000001L190.38000000000005 83.35000000000001L190.38000000000005 77.24000000000001L187.30000000000004 77.24000000000001ZM211.85 91.22L214.89 91.22L214.89 82.33L221.66 91.22L224.27 91.22L224.27 77.24L221.24 77.24L221.24 85.85L214.69 77.24L211.85 77.24ZM135.52 91.44C139.28 91.44 141.65 89.36 141.65 85.13L141.65 77.24L138.58 77.24L138.58 85.25C138.58 87.46 137.44000000000003 88.6 135.56 88.6C133.69 88.6 132.55 87.41999999999999 132.55 85.14999999999999L132.55 77.24L129.47 77.24L129.47 85.22999999999999C129.47 89.33999999999999 131.77 91.43999999999998 135.52 91.43999999999998ZM143.88 91.22L146.96 91.22L146.96 86.74L149.33 86.74L152.37 91.22L155.96 91.22L152.55 86.22C154.32000000000002 85.57 155.54000000000002 84.15 155.54000000000002 81.89C155.54000000000002 80.53 155.12000000000003 79.44 154.34000000000003 78.66C153.42000000000004 77.74 152.05000000000004 77.24 150.27000000000004 77.24L143.88000000000005 77.24ZM120.46 88.62C117.97999999999999 88.62 116.22 86.62 116.22 84.23C116.22 81.79 117.94 79.84 120.42 79.84C122.89 79.84 124.65 81.83 124.65 84.23C124.65 86.66000000000001 122.93 88.62 120.46000000000001 88.62ZM164.24 88.62C161.76000000000002 88.62 160 86.62 160 84.23C160 81.79 161.72 79.84 164.2 79.84C166.67 79.84 168.42999999999998 81.83 168.42999999999998 84.23C168.42999999999998 86.66000000000001 166.70999999999998 88.62 164.23999999999998 88.62ZM206.19 91.22L209.27 91.22L209.27 77.24L206.19 77.24ZM146.96 84.03L146.96 80.02L150.01000000000002 80.02C151.51000000000002 80.02 152.43 80.69 152.43 82.00999999999999C152.43 83.22999999999999 151.57 84.02999999999999 150.07 84.02999999999999ZM226.1 84.23C226.1 80.25 229.1 77 233.39 77C236.01999999999998 77 237.5 78 238.79999999999998 79.28L236.95999999999998 81.39C235.89 80.41 234.96999999999997 79.84 233.36999999999998 79.84C231.00999999999996 79.84 229.31999999999996 81.79 229.31999999999996 84.23C229.31999999999996 86.62 230.96999999999997 88.62 233.36999999999998 88.62C234.96999999999997 88.62 235.95 87.98 237.03999999999996 86.98L238.99999999999997 89.08C237.55999999999997 90.62 235.96999999999997 91.46 233.26999999999998 91.46C229.15999999999997 91.46 226.1 88.27999999999999 226.1 84.22999999999999Z " fill="#0c0c0c" fill-opacity="1" transform="matrix(1,0,0,1,-100,-77)"></path></svg>