<?xml version="1.0" encoding="UTF-8" standalone="no"?>
<!DOCTYPE svg PUBLIC "-//W3C//DTD SVG 1.1//EN" "http://www.w3.org/Graphics/SVG/1.1/DTD/svg11.dtd">
<svg width="100%" height="100%" viewBox="0 0 115 118" version="1.1" xmlns="http://www.w3.org/2000/svg" xmlns:xlink="http://www.w3.org/1999/xlink" xml:space="preserve" style="fill-rule:evenodd;clip-rule:evenodd;stroke-linejoin:round;stroke-miterlimit:1.41421;">
    <g transform="matrix(1,0,0,1,-812.51,-361.597)">
        <g transform="matrix(1,0,0,1,67.8117,18.2194)">
            <path d="M831.026,374.242L829.471,372.603L831.37,372.603L833.07,374.371L831.026,374.242ZM840.929,364.554L839.495,363.141L839.388,364.854L841.018,366.575L840.929,364.554Z" style="fill:none;stroke:black;stroke-width:1px;"/>
        </g>
        <g transform="matrix(0.974687,0.568976,-0.504141,0.863621,277.19,-363.043)">
            <path d="M765.785,375.211C766.739,375.959 767.312,376.918 767.312,377.963C767.312,380.35 764.317,382.289 760.628,382.289C756.94,382.289 753.945,380.35 753.945,377.963C753.945,376.694 754.79,375.553 756.136,374.761" style="fill:none;stroke:black;stroke-width:0.94px;"/>
        </g>
        <g transform="matrix(0.172684,0.108755,-0.108755,0.172684,834.834,352.466)">
            <path d="M40.523,106.007L40.523,36.646C40.523,30.254 45.713,25.064 52.105,25.064C58.498,25.064 63.687,30.254 63.687,36.646L63.687,89.366" style="fill:none;stroke:black;stroke-width:4.9px;stroke-linecap:round;"/>
        </g>
        <g transform="matrix(0.172684,0.108755,-0.0962663,0.152854,759.961,256.731)">
            <path d="M647.293,337.31L647.293,307.931C647.293,300.709 642.104,294.846 635.711,294.846C629.319,294.846 624.129,300.709 624.129,307.931L624.129,327.142" style="fill:none;stroke:black;stroke-width:5.19px;stroke-linecap:round;"/>
        </g>
        <g transform="matrix(0.172684,0.108755,-0.0962663,0.152854,763.961,259.25)">
            <path d="M647.293,307.931C647.293,300.709 642.104,294.846 635.711,294.846C629.319,294.846 624.129,300.709 624.129,307.931L624.129,337.31C624.129,344.531 629.319,350.394 635.711,350.394C642.104,350.394 647.293,344.531 647.293,337.31L647.293,307.931Z" style="fill:none;stroke:black;stroke-width:5.19px;stroke-linecap:round;"/>
        </g>
        <g transform="matrix(0.172684,0.108755,-0.218381,0.34675,807.718,198.644)">
            <path d="M647.293,334.168L647.293,308.439C647.293,305.256 642.104,302.671 635.711,302.671C629.319,302.671 624.129,305.256 624.129,308.439L624.129,331.18" style="fill:none;stroke:black;stroke-width:3.09px;stroke-linecap:round;"/>
        </g>
        <g transform="matrix(0.172684,0.108755,-0.108755,0.172684,763.164,242.45)">
            <path d="M624.977,392.313L624.977,391.533L624.959,391.524C624.952,388.878 626.124,386.21 627.862,383.953L645.482,361.081C649.648,355.673 657.421,354.664 662.829,358.83C668.237,362.996 669.245,370.769 665.079,376.177L657.051,386.599C659.575,388.96 679.331,398.115 677.426,422.917" style="fill:none;stroke:black;stroke-width:4.9px;stroke-linecap:round;"/>
        </g>
        <g transform="matrix(0.84617,0.532912,-0.532912,0.84617,405.617,-346.028)">
            <path d="M762.606,382.181L762.606,387.482C762.606,390.625 761.069,393.413 758.705,395.132C758.705,395.132 758.694,404.498 758.741,405.325" style="fill:none;stroke:black;stroke-width:1px;stroke-linecap:round;"/>
        </g>
        <g transform="matrix(0.84617,0.532912,-0.532912,0.84617,405.617,-346.028)">
            <path d="M812.594,361.003C809.157,360.121 805.555,359.652 801.844,359.652C801.19,359.652 800.54,359.666 799.894,359.695" style="fill:none;stroke:black;stroke-width:1px;stroke-linecap:round;"/>
        </g>
        <g transform="matrix(0.84617,0.532912,-0.532912,0.84617,405.617,-346.028)">
            <path d="M799.894,348.615C800.541,348.592 801.191,348.58 801.844,348.58C806.431,348.58 810.885,349.151 815.14,350.225" style="fill:none;stroke:black;stroke-width:1px;stroke-linecap:round;"/>
        </g>
        <g transform="matrix(0.84617,0.532912,-0.532912,0.84617,405.617,-346.028)">
            <path d="M747.683,405.884C747.627,404.872 747.598,395.132 747.598,395.132C745.235,393.413 743.697,390.625 743.697,387.482L743.697,382.181" style="fill:none;stroke:black;stroke-width:1px;stroke-linecap:round;"/>
        </g>
        <g transform="matrix(1,0,0,1,67.8117,18.2194)">
            <path d="M840.854,362.432C841.251,363.136 841.258,363.581 842.293,364.649C842.293,364.649 842.293,364.649 842.293,364.649C860.008,382.922 863.67,411.596 849.511,434.079C832.892,460.467 797.976,468.398 771.588,451.779C745.371,435.268 737.372,400.694 753.57,374.368C752.636,376.444 754.565,379.649 758.025,381.669C761.587,383.749 765.445,383.797 766.686,381.792L766.688,381.793C754.517,401.118 760.326,426.689 779.651,438.86C798.976,451.03 824.547,445.222 836.718,425.897C846.761,409.949 844.561,389.748 832.625,376.334C832.065,375.71 831.422,375.166 830.714,374.718C830.386,374.51 830.083,374.332 829.798,374.181L835.568,374.517L832.344,368.064L837.731,369.255L838.059,366.213L841.108,367.876L840.854,362.432ZM838.763,374.832L839.206,377.933L842.958,380.061L841.448,371.914L840.451,375.479L838.763,374.832Z" style="fill:none;stroke:black;stroke-width:1px;stroke-linecap:round;"/>
        </g>
        <g transform="matrix(-0.796571,1.26481,-0.740858,-0.466588,1756.97,-328.384)">
            <path d="M707.201,405.236C705.906,404.865 705.004,404.033 705.004,403.068C705.004,401.757 706.668,400.692 708.719,400.692C710.769,400.692 712.434,401.757 712.434,403.068C712.434,404.01 711.574,404.825 710.329,405.209" style="fill:none;stroke:black;stroke-width:0.82px;stroke-linecap:round;"/>
        </g>
        <g transform="matrix(-0.532912,0.84617,-0.84617,-0.532912,1612.56,-5.39792)">
            <path d="M711.357,408.315C712.912,408.316 714.175,409.578 714.175,411.133C714.175,412.689 712.912,413.951 711.357,413.951C710.21,413.951 709.222,413.265 708.782,412.28C708.389,412.947 707.663,413.395 706.833,413.395C705.585,413.395 704.571,412.382 704.571,411.133C704.571,409.885 705.585,408.872 706.833,408.872L706.833,402.826L706.833,402.821C706.841,402.356 707.851,401.979 709.095,401.979C710.338,401.979 711.349,402.356 711.357,402.821L711.357,402.826L711.357,408.315Z" style="fill:none;stroke:black;stroke-width:1px;stroke-linecap:round;"/>
        </g>
        <g transform="matrix(-0.734101,1.16562,-1.16562,-0.734101,1885.08,-144.128)">
            <path d="M707.049,414.238C705.92,414.238 705.004,413.322 705.004,412.193" style="fill:none;stroke:black;stroke-width:0.73px;stroke-linecap:round;"/>
        </g>
        <g transform="matrix(1,0,0,1,67.8117,18.2194)">
            <path d="M760.206,382.755C760.206,382.755 757.527,386.624 756.826,391.149" style="fill:none;stroke:black;stroke-width:1px;stroke-linecap:round;"/>
        </g>
        <g transform="matrix(1,0,0,1,69.7133,13.2744)">
            <circle cx="754.338" cy="388.703" r="1.003" style="fill:none;stroke:black;stroke-width:1px;stroke-linecap:round;"/>
        </g>
        <g transform="matrix(1,0,0,1,67.9767,18.027)">
            <circle cx="754.338" cy="388.703" r="1.003" style="fill:none;stroke:black;stroke-width:1px;stroke-linecap:round;"/>
        </g>
    </g>
</svg>
