<?xml version="1.0" encoding="UTF-8" standalone="no"?>
<!DOCTYPE svg PUBLIC "-//W3C//DTD SVG 1.1//EN" "http://www.w3.org/Graphics/SVG/1.1/DTD/svg11.dtd">
<svg width="100%" height="100%" viewBox="0 0 1127 3565" version="1.1" xmlns="http://www.w3.org/2000/svg" xmlns:xlink="http://www.w3.org/1999/xlink" xml:space="preserve" style="fill-rule:evenodd;clip-rule:evenodd;stroke-linejoin:round;stroke-miterlimit:1.41421;">
    <g transform="matrix(4.16667,0,0,4.16667,-3549.91,-1499.16)">
        <g transform="matrix(1,-1.37804e-15,1.37804e-15,1,463.855,-93.1243)">
            <path d="M494.724,777.827C496.641,765.843 490.588,744.215 476.204,710.861C467.257,690.512 460.964,669.351 460.503,640.099C460.481,640.107 460.458,640.115 460.436,640.123C460.029,642.642 457.843,644.568 455.211,644.568C452.29,644.568 449.918,642.196 449.918,639.275L449.918,630.558C449.918,627.637 452.29,625.266 455.211,625.266C455.432,625.266 455.865,625.306 455.865,625.306L455.605,565.361C470.214,559.971 478.913,551.754 483.714,541.673C500.886,569.816 532.134,564.588 538.139,534.264C545.297,543.341 571.119,541.275 570.793,533.986C570.086,536.76 583.937,565.364 591.301,565.361L591.041,625.306C591.041,625.306 591.474,625.266 591.696,625.266C594.617,625.266 596.988,627.637 596.988,630.558L596.988,639.275C596.988,642.196 594.617,644.568 591.696,644.568C589.063,644.568 586.877,642.642 586.471,640.123C586.448,640.115 586.426,640.107 586.403,640.099C585.942,669.351 579.649,690.512 570.702,710.861C556.318,744.215 550.265,765.843 552.182,777.827" style="fill:none;stroke:black;stroke-width:2px;"/>
        </g>
        <g transform="matrix(0.5,-6.89019e-16,6.89019e-16,0.5,688.569,224.965)">
            <path d="M450.41,638.776C450.41,641.697 452.781,644.069 455.702,644.069C458.623,644.069 460.995,641.697 460.995,638.776L460.995,630.06" style="fill:none;stroke:black;stroke-width:4px;stroke-linecap:round;"/>
        </g>
        <g transform="matrix(-0.5,6.89019e-16,6.89019e-16,0.5,1286.05,224.965)">
            <path d="M450.41,638.776C450.41,641.697 452.781,644.069 455.702,644.069C458.623,644.069 460.995,641.697 460.995,638.776L460.995,630.06" style="fill:none;stroke:black;stroke-width:4px;stroke-linecap:round;"/>
        </g>
        <g transform="matrix(2.01976,-2.7833e-15,2.7833e-15,2.01976,-55.6511,-758.174)">
            <path d="M509.504,646.189C509.504,646.189 508.775,646.189 507.799,646.189C505.064,646.189 502.848,648.406 502.848,651.141C502.848,651.782 502.848,652.221 502.848,652.221" style="fill:none;stroke:black;stroke-width:0.99px;stroke-linecap:round;"/>
        </g>
        <g transform="matrix(-2.01976,2.7833e-15,2.7833e-15,2.01976,2030.27,-758.174)">
            <path d="M509.504,646.189C509.504,646.189 508.775,646.189 507.799,646.189C505.064,646.189 502.848,648.406 502.848,651.141C502.848,651.782 502.848,652.221 502.848,652.221" style="fill:none;stroke:black;stroke-width:0.99px;stroke-linecap:round;"/>
        </g>
        <g transform="matrix(1.08329,0.707332,-0.212737,0.32581,553.112,-54.7176)">
            <path d="M514.829,656.343C514.829,650.739 513.461,646.189 511.776,646.189L505.902,646.189C504.216,646.189 502.848,650.739 502.848,656.343C502.848,661.948 504.216,666.497 505.902,666.497L511.776,666.497C513.461,666.497 514.829,661.948 514.829,656.343Z" style="fill:none;stroke:black;stroke-width:2.09px;stroke-linecap:round;"/>
        </g>
        <g transform="matrix(-1.08329,0.707332,0.212737,0.32581,1421.51,-54.7176)">
            <path d="M514.829,656.343C514.829,650.739 513.461,646.189 511.776,646.189L505.902,646.189C504.216,646.189 502.848,650.739 502.848,656.343C502.848,661.948 504.216,666.497 505.902,666.497L511.776,666.497C513.461,666.497 514.829,661.948 514.829,656.343Z" style="fill:none;stroke:black;stroke-width:2.09px;stroke-linecap:round;"/>
        </g>
        <g transform="matrix(2.46756,1.61119,-0.484583,0.742145,27.1635,-787.895)">
            <path d="M509.488,646.189L505.902,646.189C504.926,646.189 504.057,647.713 503.498,650.082" style="fill:none;stroke:black;stroke-width:0.92px;stroke-linecap:round;"/>
        </g>
        <g transform="matrix(-2.46756,1.61119,0.484583,0.742145,1947.45,-787.895)">
            <path d="M509.488,646.189L505.902,646.189C504.926,646.189 504.057,647.713 503.498,650.082" style="fill:none;stroke:black;stroke-width:0.92px;stroke-linecap:round;"/>
        </g>
        <g transform="matrix(1,0,0,1,153.383,6.25391)">
            <path d="M813.32,556.965C813.32,556.965 813.32,554.987 813.32,552.777C813.32,551.195 813.949,549.677 815.068,548.559C816.187,547.44 817.704,546.811 819.286,546.811C819.287,546.811 819.287,546.811 819.288,546.811C822.61,546.811 825.302,549.504 825.302,552.825L825.302,558.497C825.302,560.784 826.21,562.977 827.827,564.594C829.444,566.211 831.637,567.119 833.924,567.119C833.925,567.119 833.926,567.119 833.927,567.119C836.214,567.119 838.407,566.211 840.024,564.594C841.641,562.977 842.549,560.784 842.549,558.497C842.549,557.576 842.549,556.965 842.549,556.965C842.549,556.965 842.549,555.016 842.549,552.825C842.549,549.504 845.242,546.811 848.563,546.811C848.564,546.811 848.565,546.811 848.565,546.811C850.148,546.811 851.665,547.44 852.784,548.559C853.903,549.677 854.531,551.195 854.531,552.777C854.531,554.987 854.531,556.965 854.531,556.965" style="fill:none;stroke:black;stroke-width:2px;stroke-linecap:round;"/>
        </g>
        <g transform="matrix(1,-1.37804e-15,1.37804e-15,1,463.855,-93.1243)">
            <path d="M483.714,683.878C482.015,687.489 481.623,691.311 483.714,695.534" style="fill:none;stroke:black;stroke-width:2px;stroke-linecap:round;"/>
        </g>
        <g transform="matrix(-1,1.37804e-15,1.37804e-15,1,1510.76,-93.1243)">
            <path d="M483.714,683.878C482.015,687.489 481.623,691.311 483.714,695.534" style="fill:none;stroke:black;stroke-width:2px;stroke-linecap:round;"/>
        </g>
        <g transform="matrix(1,-1.37804e-15,1.37804e-15,1,465.518,-93.1243)">
            <path d="M502.848,714.653C502.848,718.261 505.777,721.19 509.385,721.19L534.195,721.19C537.804,721.19 540.733,718.261 540.733,714.653" style="fill:none;stroke:black;stroke-width:2px;stroke-linecap:round;"/>
        </g>
        <g transform="matrix(1,-1.37804e-15,1.37804e-15,1,463.855,-93.1243)">
            <path d="M523.453,695.534C523.453,695.534 494.685,695.534 494.685,695.534C494.685,695.534 497.757,693.931 500.679,692.406C504.056,690.644 506.847,687.938 508.712,684.617C508.848,684.373 508.986,684.128 509.124,683.882C511.23,680.133 515.195,677.812 519.495,677.812L527.411,677.812C531.711,677.812 535.677,680.133 537.782,683.882C537.92,684.128 538.058,684.373 538.194,684.617C540.059,687.938 542.85,690.644 546.227,692.406C549.149,693.931 552.222,695.534 552.222,695.534L523.453,695.534L523.453,695.534Z" style="fill:none;stroke:black;stroke-width:2px;stroke-linecap:round;"/>
        </g>
        <g transform="matrix(1,-1.37804e-15,1.37804e-15,1,472.01,-93.1243)">
            <path d="M515.298,691.324C515.298,689.604 513.904,688.21 512.184,688.21C512.184,688.21 512.183,688.21 512.183,688.21C510.463,688.21 509.069,689.604 509.069,691.324C509.069,693.318 509.069,695.534 509.069,695.534L515.298,695.534C515.298,695.534 515.298,693.318 515.298,691.324Z" style="fill:none;stroke:black;stroke-width:2px;stroke-linecap:round;"/>
        </g>
        <g transform="matrix(-1,1.37804e-15,1.37804e-15,1,1502.61,-93.1243)">
            <path d="M515.298,691.324C515.298,689.604 513.904,688.21 512.184,688.21C512.184,688.21 512.183,688.21 512.183,688.21C510.463,688.21 509.069,689.604 509.069,691.324C509.069,693.318 509.069,695.534 509.069,695.534L515.298,695.534C515.298,695.534 515.298,693.318 515.298,691.324Z" style="fill:none;stroke:black;stroke-width:2px;stroke-linecap:round;"/>
        </g>
        <g transform="matrix(1,-1.37804e-15,1.37804e-15,1,465.781,-93.1243)">
            <path d="M515.298,691.324C515.298,689.604 513.904,688.21 512.184,688.21C512.184,688.21 512.183,688.21 512.183,688.21C510.463,688.21 509.069,689.604 509.069,691.324C509.069,693.318 509.069,695.534 509.069,695.534L515.298,695.534C515.298,695.534 515.298,693.318 515.298,691.324Z" style="fill:none;stroke:black;stroke-width:2px;stroke-linecap:round;"/>
        </g>
        <g transform="matrix(-1,1.37804e-15,1.37804e-15,1,1508.84,-93.1243)">
            <path d="M515.298,691.324C515.298,689.604 513.904,688.21 512.184,688.21C512.184,688.21 512.183,688.21 512.183,688.21C510.463,688.21 509.069,689.604 509.069,691.324C509.069,693.318 509.069,695.534 509.069,695.534L515.298,695.534C515.298,695.534 515.298,693.318 515.298,691.324Z" style="fill:none;stroke:black;stroke-width:2px;stroke-linecap:round;"/>
        </g>
        <g transform="matrix(1,-1.37804e-15,1.37804e-15,1,459.552,-93.1243)">
            <path d="M515.298,691.324C515.298,689.604 513.904,688.21 512.184,688.21C512.184,688.21 512.183,688.21 512.183,688.21C510.463,688.21 509.069,689.604 509.069,691.324C509.069,693.318 509.069,695.534 509.069,695.534L515.298,695.534C515.298,695.534 515.298,693.318 515.298,691.324Z" style="fill:none;stroke:black;stroke-width:2px;stroke-linecap:round;"/>
        </g>
        <g transform="matrix(-1,1.37804e-15,1.37804e-15,1,1515.07,-93.1243)">
            <path d="M515.298,691.324C515.298,689.604 513.904,688.21 512.184,688.21C512.184,688.21 512.183,688.21 512.183,688.21C510.463,688.21 509.069,689.604 509.069,691.324C509.069,693.318 509.069,695.534 509.069,695.534L515.298,695.534C515.298,695.534 515.298,693.318 515.298,691.324Z" style="fill:none;stroke:black;stroke-width:2px;stroke-linecap:round;"/>
        </g>
        <g transform="matrix(1,-1.37804e-15,1.37804e-15,1,463.855,-93.1243)">
            <path d="M455.766,624.558C440.7,596.541 434.069,574.446 440.225,559.835C436.07,523.729 450.511,499.433 468.192,484.513C482.087,450.133 505,449.744 523.453,459.213C539.056,457.633 549.269,467.85 556.241,485.161C562.468,456.866 587.335,498.278 580.074,527.789C590.653,524.701 601.112,536.969 602,561.875C611.104,581.429 599.3,603.39 591.305,624.855" style="fill:none;stroke:black;stroke-width:2px;stroke-linecap:round;"/>
        </g>
        <g transform="matrix(1,-1.37804e-15,6.13882e-16,0.445476,708.583,225.551)">
            <path d="M199.094,452.211L199.094,628.394" style="fill:none;stroke:black;stroke-width:2.58px;stroke-linecap:round;"/>
        </g>
        <g transform="matrix(1,-1.37804e-15,8.69514e-16,0.63098,715.838,125.358)">
            <path d="M199.094,454.28L199.094,628.394" style="fill:none;stroke:black;stroke-width:2.39px;stroke-linecap:round;"/>
        </g>
        <g transform="matrix(1,-1.37804e-15,5.52635e-16,0.40103,723.093,218.995)">
            <path d="M199.094,454.567L199.094,628.394" style="fill:none;stroke:black;stroke-width:2.63px;stroke-linecap:round;"/>
        </g>
        <g transform="matrix(1,-1.37804e-15,5.78668e-16,0.419922,730.348,203.124)">
            <path d="M199.094,454.567L199.094,628.394" style="fill:none;stroke:black;stroke-width:2.61px;stroke-linecap:round;"/>
        </g>
        <g transform="matrix(1,-1.37804e-15,6.36143e-16,0.46163,737.604,171.915)">
            <path d="M199.094,454.567L199.094,628.394" style="fill:none;stroke:black;stroke-width:2.57px;stroke-linecap:round;"/>
        </g>
        <g transform="matrix(1,-1.37804e-15,6.4789e-16,0.470154,744.859,158.558)">
            <path d="M199.094,454.567L199.094,628.394" style="fill:none;stroke:black;stroke-width:2.56px;stroke-linecap:round;"/>
        </g>
        <g transform="matrix(1,-1.37804e-15,7.00142e-16,0.508072,752.114,134.731)">
            <path d="M199.094,454.567L199.094,627.012" style="fill:none;stroke:black;stroke-width:2.52px;stroke-linecap:round;"/>
        </g>
        <g transform="matrix(1,-1.37804e-15,7.61717e-16,0.552755,759.369,111.018)">
            <path d="M199.094,454.567L199.094,631.35" style="fill:none;stroke:black;stroke-width:2.48px;stroke-linecap:round;"/>
        </g>
        <g transform="matrix(1,-1.37804e-15,8.19357e-16,0.594583,766.624,90.1648)">
            <path d="M199.094,456.248L199.094,630.417" style="fill:none;stroke:black;stroke-width:2.43px;stroke-linecap:round;"/>
        </g>
        <g transform="matrix(1,-1.37804e-15,8.34525e-16,0.60559,773.88,85.1614)">
            <path d="M199.094,456.218L199.094,628.872" style="fill:none;stroke:black;stroke-width:2.42px;stroke-linecap:round;"/>
        </g>
        <g transform="matrix(1,-1.37804e-15,7.97887e-16,0.579002,781.135,100.956)">
            <path d="M199.094,454.567L199.094,630.472" style="fill:none;stroke:black;stroke-width:2.45px;stroke-linecap:round;"/>
        </g>
        <g transform="matrix(1,-1.37804e-15,7.70013e-16,0.558775,788.39,112.25)">
            <path d="M199.094,454.567L199.094,628.394" style="fill:none;stroke:black;stroke-width:2.47px;stroke-linecap:round;"/>
        </g>
        <g transform="matrix(1,-1.37804e-15,7.24894e-16,0.526034,795.645,127.277)">
            <path d="M199.094,454.567L199.094,626.81" style="fill:none;stroke:black;stroke-width:2.5px;stroke-linecap:round;"/>
        </g>
        <g transform="matrix(1,-1.37804e-15,5.9595e-16,0.432463,802.9,172.29)">
            <path d="M199.094,454.567L199.094,623.769" style="fill:none;stroke:black;stroke-width:2.6px;stroke-linecap:round;"/>
        </g>
        <g transform="matrix(1,-1.37804e-15,5.60721e-16,0.406899,810.156,189.33)">
            <path d="M199.094,454.567L199.094,628.394" style="fill:none;stroke:black;stroke-width:2.62px;stroke-linecap:round;"/>
        </g>
        <g transform="matrix(1,-1.37804e-15,4.8863e-16,0.354584,817.411,223.62)">
            <path d="M199.094,454.567L199.094,628.394" style="fill:none;stroke:black;stroke-width:2.67px;stroke-linecap:round;"/>
        </g>
        <g transform="matrix(1,-1.37804e-15,4.96186e-16,0.360067,824.666,220.174)">
            <path d="M199.094,454.987L199.094,628.394" style="fill:none;stroke:black;stroke-width:2.66px;stroke-linecap:round;"/>
        </g>
        <g transform="matrix(1,-1.37804e-15,4.76328e-16,0.345657,831.921,227.702)">
            <path d="M199.094,454.567L199.094,628.394" style="fill:none;stroke:black;stroke-width:2.67px;stroke-linecap:round;"/>
        </g>
        <g transform="matrix(1,-1.37804e-15,4.39899e-16,0.319221,839.176,248.307)">
            <path d="M199.094,457.699L199.094,632.521" style="fill:none;stroke:black;stroke-width:2.69px;stroke-linecap:round;"/>
        </g>
        <g transform="matrix(1,-1.37804e-15,2.2359e-16,0.162253,846.432,361.027)">
            <path d="M199.094,454.567L199.094,628.394" style="fill:none;stroke:black;stroke-width:2.79px;stroke-linecap:round;"/>
        </g>
        <g transform="matrix(1,-1.37804e-15,2.76316e-16,0.200514,854.484,345.847)">
            <path d="M199.094,454.567L199.094,628.394" style="fill:none;stroke:black;stroke-width:2.77px;stroke-linecap:round;"/>
        </g>
        <g transform="matrix(1,-1.37804e-15,5.2005e-16,0.377384,862.536,276.071)">
            <path d="M199.094,454.567L199.094,633.117" style="fill:none;stroke:black;stroke-width:2.65px;stroke-linecap:round;"/>
        </g>
        <g transform="matrix(0.973232,-0.229826,0.229826,0.973232,335.57,41.9944)">
            <path d="M500.846,612.168L503.562,609.452" style="fill:none;stroke:black;stroke-width:2px;stroke-linecap:round;"/>
        </g>
        <g transform="matrix(-0.973232,-0.229826,-0.229826,0.973232,1639.05,41.9944)">
            <path d="M500.846,612.168L503.562,609.452" style="fill:none;stroke:black;stroke-width:2px;stroke-linecap:round;"/>
        </g>
        <g transform="matrix(1,-1.37804e-15,1.37804e-15,1,355.98,27.5338)">
            <path d="M588.306,699.991L571.002,699.991L571.002,683.707C571.002,676.436 573.891,669.462 579.033,664.321C584.174,659.179 602.419,656.29 602.419,656.29C622.753,664.822 639.274,664.856 659.984,656.29C659.984,656.29 678.229,659.179 683.371,664.321C688.512,669.462 691.401,676.436 691.401,683.707L691.401,699.991L673.097,699.991L673.097,744.148" style="fill:none;stroke:black;stroke-width:2px;stroke-linecap:round;"/>
        </g>
        <g transform="matrix(1,-1.37804e-15,1.37804e-15,1,355.98,27.5338)">
            <path d="M674.097,829.022L691.401,829.022L691.401,845.306C691.401,852.577 688.512,859.551 683.371,864.693C678.229,869.834 659.984,872.723 659.984,872.723C639.65,864.191 623.129,864.158 602.419,872.723C602.419,872.723 584.174,869.834 579.033,864.693C573.891,859.551 571.002,852.577 571.002,845.306L571.002,829.022L589.306,829.022L589.306,784.675" style="fill:none;stroke:black;stroke-width:2px;stroke-linecap:round;"/>
        </g>
        <g transform="matrix(-1,1.94459e-15,-1.94459e-15,-1,1817.34,1677.21)">
            <path d="M746.063,689.862L746.063,675.143" style="fill:none;stroke:black;stroke-width:2px;stroke-linecap:round;"/>
        </g>
        <g transform="matrix(-1,1.94459e-15,-1.94459e-15,-1,1817.34,1677.21)">
            <path d="M742.219,669.554L742.219,649.409C738.328,615.985 744.583,588.448 762.693,567.79C744.556,569.332 732.584,562.46 732.59,539.24C726.192,533.787 725.42,523.88 732.126,518.068" style="fill:none;stroke:black;stroke-width:2px;stroke-linecap:round;"/>
        </g>
        <g transform="matrix(-1,1.94459e-15,-1.94459e-15,-1,1817.34,1677.21)">
            <path d="M735.493,505.297C733.065,490.707 742.935,481.986 754.613,482.956C757.155,471.075 764.81,464.999 779.272,466.652C791.179,460.734 801.725,461.654 810.793,469.997C819.442,465.711 825.385,468.119 830.289,473.096C840.419,468.506 848.967,471.226 856.172,480.148C866.29,480.274 872.107,485.585 874.358,495.192C885.304,498.507 890.416,504.717 888.488,514.42C893.699,516.112 900.229,520.238 897.266,527.944C889.031,549.357 902.609,570.314 898.93,592.77C890.788,642.466 867.928,684.555 855.345,715.499C848.556,737.874 847.569,758.88 859.038,776.949" style="fill:none;stroke:black;stroke-width:2px;stroke-linecap:round;"/>
        </g>
        <g transform="matrix(-1,1.94459e-15,-1.94459e-15,-1,1817.34,1677.21)">
            <path d="M802.264,776.949C803.37,767.686 798.75,762.373 788.132,761.2C788.132,761.2 764.14,761.2 751.15,761.2C746.66,761.2 743.021,757.56 743.021,753.071C743.021,752.153 743.021,751.265 743.021,750.475C743.021,748.491 742.233,746.589 740.83,745.186C740.513,744.869 740.197,744.553 739.909,744.265C739.143,743.499 738.712,742.459 738.712,741.375C738.712,740.841 738.712,740.233 738.712,739.633C738.712,737.921 740.1,736.533 741.812,736.533C749.787,736.533 771.328,736.533 784.709,736.533C791.814,736.533 798.536,733.312 802.987,727.774C804.576,725.796 806.144,723.845 807.338,722.36C808.54,720.864 808.422,718.704 807.066,717.348C807.013,717.295 806.961,717.242 806.908,717.19C805.743,716.025 803.876,715.96 802.633,717.042C801.907,717.674 801.073,718.4 800.246,719.119C797.474,721.532 793.922,722.861 790.247,722.861C780.737,722.861 761.88,722.861 753.795,722.861C752.863,722.861 751.981,722.439 751.398,721.713C750.814,720.986 750.592,720.035 750.792,719.125C751.462,716.087 752.297,712.302 752.297,712.302" style="fill:none;stroke:black;stroke-width:2px;stroke-linecap:round;"/>
        </g>
        <g transform="matrix(-1,1.94459e-15,-1.94459e-15,-1,1817.34,1677.21)">
            <path d="M759.614,698.316C759.614,698.316 762.611,698.316 765.668,698.316C767.371,698.316 769.005,698.993 770.209,700.197C771.413,701.402 772.09,703.035 772.09,704.738C772.09,704.739 772.09,704.74 772.09,704.741C772.09,706.444 771.413,708.078 770.209,709.282C769.005,710.486 767.371,711.163 765.668,711.163C757.89,711.163 744.931,711.163 737.667,711.163C736.599,711.163 735.616,710.579 735.104,709.641C734.593,708.703 734.636,707.56 735.215,706.662C740.686,698.184 751.975,680.687 751.975,680.687L751.975,673.757" style="fill:none;stroke:black;stroke-width:2px;stroke-linecap:round;"/>
        </g>
        <g transform="matrix(-1,1.94459e-15,-1.94459e-15,-1,1817.34,1676.83)">
            <path d="M765.358,704.222L754.627,704.222" style="fill:none;stroke:black;stroke-width:2px;stroke-linecap:round;"/>
        </g>
        <g transform="matrix(-1,1.94459e-15,-1.94459e-15,-1,1817.34,1677.21)">
            <path d="M811.404,706.404C815.093,706.082 817.688,707.784 819.375,711.163" style="fill:none;stroke:black;stroke-width:2px;stroke-linecap:round;"/>
        </g>
        <g transform="matrix(-0.732743,0.528337,-0.584861,-0.811134,2007.85,1149)">
            <path d="M787.752,676.921C787.752,674.344 785.436,672.252 782.584,672.252L763.196,672.252C760.344,672.252 758.028,674.344 758.028,676.921C758.028,679.498 760.344,681.59 763.196,681.59L782.584,681.59C785.436,681.59 787.752,679.498 787.752,676.921Z" style="fill:none;stroke:black;stroke-width:2.1px;stroke-linecap:round;"/>
        </g>
        <g transform="matrix(-0.15161,0.109317,-0.121012,-0.16783,1249.2,1032.71)">
            <path d="M782.584,672.252L763.196,672.252" style="fill:none;stroke:black;stroke-width:10.14px;stroke-linecap:round;"/>
        </g>
        <g transform="matrix(0.0860333,0.0620335,0.06867,-0.0952374,956.748,1020.46)">
            <path d="M782.584,672.252L763.196,672.252" style="fill:none;stroke:black;stroke-width:17.88px;stroke-linecap:round;"/>
        </g>
        <g transform="matrix(0.28842,0.207962,0.387839,-0.537888,584.787,1208.81)">
            <path d="M787.752,676.921C787.752,674.344 783.851,672.252 779.045,672.252L766.735,672.252C761.929,672.252 758.028,674.344 758.028,676.921C758.028,679.498 761.929,681.59 766.735,681.59L779.045,681.59C783.851,681.59 787.752,679.498 787.752,676.921Z" style="fill:none;stroke:black;stroke-width:3.76px;stroke-linecap:round;"/>
        </g>
        <g transform="matrix(-1,1.94459e-15,-1.94459e-15,-1,1817.34,1677.21)">
            <path d="M834.183,685.322C834.183,688.846 837.044,691.707 840.569,691.707C844.093,691.707 846.954,688.846 846.954,685.322L846.954,665.527C846.954,662.003 844.093,659.142 840.569,659.142C837.044,659.142 834.183,662.003 834.183,665.527L827.856,652.126L835.696,616.399C837.1,602.845 838.227,589.432 824.565,583.515C811.827,577.998 808.68,566.551 811.187,557.126" style="fill:none;stroke:black;stroke-width:2px;stroke-linecap:round;"/>
        </g>
        <g transform="matrix(-1,1.94459e-15,-1.94459e-15,-1,1817.34,1677.21)">
            <path d="M785.694,570.646C767.83,575.013 757.346,567.93 755.723,552.065" style="fill:none;stroke:black;stroke-width:2px;stroke-linecap:round;"/>
        </g>
        <g transform="matrix(-0.779298,1.51542e-15,-1.51542e-15,-0.779298,1625.35,1548.73)">
            <path d="M784.374,569.024C769.605,575.352 757.346,567.93 755.723,552.065" style="fill:none;stroke:black;stroke-width:2.57px;stroke-linecap:round;"/>
        </g>
        <g transform="matrix(-0.779298,1.51542e-15,-1.51542e-15,-0.779298,1613.26,1547.91)">
            <path d="M779.041,565.27C774.046,571.236 757.346,567.93 755.723,552.065" style="fill:none;stroke:black;stroke-width:2.57px;stroke-linecap:round;"/>
        </g>
        <g transform="matrix(-0.544204,1.05825e-15,-1.05825e-15,-0.544204,1431.31,1370.37)">
            <path d="M834.183,665.527L834.183,685.322C834.183,688.846 837.044,691.707 840.569,691.707C844.093,691.707 846.954,688.846 846.954,685.322" style="fill:none;stroke:black;stroke-width:3.68px;stroke-linecap:round;"/>
        </g>
        <g transform="matrix(-1,1.94459e-15,-1.94459e-15,-1,1817.34,1677.21)">
            <path d="M855.475,714.382C847.399,709.913 855.334,689.136 846.954,686.461" style="fill:none;stroke:black;stroke-width:2px;stroke-linecap:round;"/>
        </g>
        <g transform="matrix(-1,1.94459e-15,-1.94459e-15,-1,1817.34,1677.21)">
            <path d="M755.723,723.732L755.723,735.949" style="fill:none;stroke:black;stroke-width:2px;stroke-linecap:round;"/>
        </g>
        <g transform="matrix(-1,1.94459e-15,-1.94459e-15,-1,1808.62,1678.21)">
            <path d="M755.723,724.732L755.723,736.949" style="fill:none;stroke:black;stroke-width:2px;stroke-linecap:round;"/>
        </g>
        <g transform="matrix(-1,1.94459e-15,-1.94459e-15,-1,1799.89,1679.21)">
            <path d="M755.723,725.732L755.723,737.949" style="fill:none;stroke:black;stroke-width:2px;stroke-linecap:round;"/>
        </g>
        <g transform="matrix(-1,1.94459e-15,-1.94459e-15,-1,1791.17,1680.21)">
            <path d="M755.723,726.732L755.723,738.949" style="fill:none;stroke:black;stroke-width:2px;stroke-linecap:round;"/>
        </g>
        <g transform="matrix(-1,1.94459e-15,-1.94459e-15,-1,1782.44,1681.21)">
            <path d="M755.723,727.732L755.723,738.949" style="fill:none;stroke:black;stroke-width:2px;stroke-linecap:round;"/>
        </g>
        <g transform="matrix(-1,1.94459e-15,-1.94459e-15,-1,1773.72,1682.21)">
            <path d="M755.723,724.732L755.723,735.949" style="fill:none;stroke:black;stroke-width:2px;stroke-linecap:round;"/>
        </g>
        <g transform="matrix(-1,1.94459e-15,-1.94459e-15,-1,1817.34,1677.21)">
            <path d="M764.449,656.322L806.939,628.817" style="fill:none;stroke:black;stroke-width:2px;stroke-linecap:round;"/>
        </g>
        <g transform="matrix(0.243647,-4.73793e-16,-4.73793e-16,-0.243647,878.371,1180.79)">
            <path d="M764.449,656.322L806.939,628.817" style="fill:none;stroke:black;stroke-width:8.21px;stroke-linecap:round;"/>
        </g>
        <g transform="matrix(-1,1.94459e-15,-1.94459e-15,-1,1817.34,1677.21)">
            <path d="M745.063,502.165C731.448,503.677 729.695,515.53 734.548,524.275" style="fill:none;stroke:black;stroke-width:2px;stroke-linecap:round;"/>
        </g>
        <g transform="matrix(1,-1.37804e-15,1.37804e-15,1,153.383,6.25391)">
            <path d="M861.385,815.875L869.096,820.327C870.645,821.222 871.176,823.203 870.282,824.753C870.281,824.754 870.281,824.755 870.28,824.755C869.385,826.305 867.404,826.836 865.854,825.941L860.797,823.022C860.797,823.022 865.854,825.941 865.854,825.941C867.404,826.836 867.935,828.818 867.04,830.367C867.04,830.368 867.039,830.369 867.039,830.37C866.144,831.92 864.162,832.451 862.613,831.556L857.556,828.636C857.556,828.636 862.613,831.556 862.613,831.556C864.162,832.451 864.693,834.432 863.799,835.982C863.798,835.983 863.798,835.984 863.797,835.984C862.902,837.534 860.921,838.065 859.371,837.17L854.314,834.251C854.314,834.251 859.371,837.17 859.371,837.17C860.921,838.065 861.452,840.047 860.557,841.596C860.557,841.597 860.556,841.598 860.556,841.599C859.661,843.149 857.679,843.68 856.13,842.785L848.419,838.333C848.419,838.333 848.419,838.333 848.419,838.333" style="fill:none;stroke:black;stroke-width:2px;stroke-linecap:round;"/>
        </g>
        <g transform="matrix(-1,1.37804e-15,-1.37804e-15,-1,1820.98,1577.72)">
            <path d="M861.385,815.875L869.096,820.327C870.645,821.222 871.176,823.203 870.282,824.753C870.281,824.754 870.281,824.755 870.28,824.755C869.385,826.305 867.404,826.836 865.854,825.941L860.797,823.022C860.797,823.022 865.854,825.941 865.854,825.941C867.404,826.836 867.935,828.818 867.04,830.367C867.04,830.368 867.039,830.369 867.039,830.37C866.144,831.92 864.162,832.451 862.613,831.556L857.556,828.636C857.556,828.636 862.613,831.556 862.613,831.556C864.162,832.451 864.693,834.432 863.799,835.982C863.798,835.983 863.798,835.984 863.797,835.984C862.902,837.534 860.921,838.065 859.371,837.17L854.314,834.251C854.314,834.251 859.371,837.17 859.371,837.17C860.921,838.065 861.452,840.047 860.557,841.596C860.557,841.597 860.556,841.598 860.556,841.599C859.661,843.149 857.679,843.68 856.13,842.785L848.419,838.333C848.419,838.333 848.419,838.333 848.419,838.333" style="fill:none;stroke:black;stroke-width:2px;stroke-linecap:round;"/>
        </g>
        <g transform="matrix(1,-1.37804e-15,1.37804e-15,1,153.383,6.25391)">
            <path d="M852.736,810.882L864.54,817.697" style="fill:none;stroke:black;stroke-width:2px;stroke-linecap:round;"/>
        </g>
        <g transform="matrix(-1,1.37804e-15,-1.37804e-15,-1,1820.98,1577.72)">
            <path d="M852.736,810.882L864.54,817.697" style="fill:none;stroke:black;stroke-width:2px;stroke-linecap:round;"/>
        </g>
        <g transform="matrix(1,-1.37804e-15,1.37804e-15,1,153.383,6.25391)">
            <path d="M851.237,839.951C851.237,839.951 793.962,806.904 779.093,798.325C776.931,797.078 775.6,794.772 775.6,792.277C775.6,776.685 775.6,721.205 775.6,721.205L791.436,721.205C791.436,721.205 791.436,768.792 791.436,783.111C791.436,785.603 792.766,787.906 794.924,789.152C803.776,794.263 827.031,807.689 835.827,812.767C836.738,813.294 837.822,813.436 838.838,813.164C839.855,812.891 840.722,812.226 841.248,811.315C841.388,811.073 842.425,809.281 843.614,807.225C845.768,803.499 850.492,802.157 854.283,804.194C856.32,805.288 858.024,806.204 858.024,806.204" style="fill:none;stroke:black;stroke-width:2px;stroke-linecap:round;"/>
        </g>
        <g transform="matrix(-1,1.37804e-15,-1.37804e-15,-1,1820.98,1577.72)">
            <path d="M851.237,839.951C851.237,839.951 793.962,806.904 779.093,798.325C776.931,797.078 775.6,794.772 775.6,792.277C775.6,776.685 775.6,721.205 775.6,721.205L791.436,721.205C791.436,721.205 791.436,768.792 791.436,783.111C791.436,785.603 792.766,787.906 794.924,789.152C803.776,794.263 827.031,807.689 835.827,812.767C836.738,813.294 837.822,813.436 838.838,813.164C839.855,812.891 840.722,812.226 841.248,811.315C841.388,811.073 842.425,809.281 843.614,807.225C845.768,803.499 850.492,802.157 854.283,804.194C856.32,805.288 858.024,806.204 858.024,806.204" style="fill:none;stroke:black;stroke-width:2px;stroke-linecap:round;"/>
        </g>
        <g transform="matrix(1.6243,0.937791,-1.00469,1.74017,383.03,-1423.48)">
            <path d="M886.209,823.58L886.209,825.466L891.998,825.466C891.998,825.466 891.998,824.763 891.998,823.624" style="fill:none;stroke:black;stroke-width:1.03px;stroke-linecap:round;"/>
        </g>
        <g transform="matrix(-1.6243,-0.937791,1.00469,-1.74017,1591.33,3007.45)">
            <path d="M886.209,823.58L886.209,825.466L891.998,825.466C891.998,825.466 891.998,824.763 891.998,823.624" style="fill:none;stroke:black;stroke-width:1.03px;stroke-linecap:round;"/>
        </g>
        <g transform="matrix(1.6243,0.937791,-1.00469,1.74017,383.03,-1423.48)">
            <path d="M891.998,810.63C891.998,809.719 891.998,808.884 891.998,808.171C891.998,807.519 891.721,806.893 891.227,806.432C890.733,805.971 890.062,805.712 889.364,805.712C887.835,805.712 886.209,805.712 886.209,805.712L886.209,810.639" style="fill:none;stroke:black;stroke-width:1.03px;stroke-linecap:round;"/>
        </g>
        <g transform="matrix(-1.6243,-0.937791,1.00469,-1.74017,1591.33,3007.45)">
            <path d="M891.998,810.63C891.998,809.719 891.998,808.884 891.998,808.171C891.998,807.519 891.721,806.893 891.227,806.432C890.733,805.971 890.062,805.712 889.364,805.712C887.835,805.712 886.209,805.712 886.209,805.712L886.209,810.639" style="fill:none;stroke:black;stroke-width:1.03px;stroke-linecap:round;"/>
        </g>
        <g transform="matrix(2.28593,1.31978,0.606288,-1.05012,-1533.11,541.287)">
            <path d="M886.209,805.712L886.209,825.466L891.998,825.466L891.12,805.66" style="fill:none;stroke:black;stroke-width:0.97px;stroke-linecap:round;"/>
        </g>
        <g transform="matrix(-2.28593,-1.31978,-0.606288,1.05012,3507.48,1042.68)">
            <path d="M886.209,805.712L886.209,825.466L891.998,825.466L891.12,805.66" style="fill:none;stroke:black;stroke-width:0.97px;stroke-linecap:round;"/>
        </g>
        <g transform="matrix(1.11907,0.646096,-0.646096,1.11907,639.164,-622.86)">
            <path d="M797.935,865.657L821.145,865.657" style="fill:none;stroke:black;stroke-width:1.55px;stroke-linecap:round;"/>
        </g>
        <g transform="matrix(-1.11907,-0.646096,0.646096,-1.11907,1335.2,2206.83)">
            <path d="M797.935,865.657L821.145,865.657" style="fill:none;stroke:black;stroke-width:1.55px;stroke-linecap:round;"/>
        </g>
        <g transform="matrix(1,-1.37804e-15,1.37804e-15,1,153.383,6.25391)">
            <path d="M959.439,685.544L959.439,731.064L959.439,731.199C959.366,754.251 940.628,772.944 917.559,772.944C894.445,772.944 875.679,754.178 875.679,731.064L875.679,721.224L891.998,721.224L891.998,731.064L891.999,731.146C892.043,745.216 903.479,756.624 917.559,756.624C931.666,756.624 943.119,745.171 943.119,731.064L943.119,685.864" style="fill:none;stroke:black;stroke-width:2px;stroke-linecap:round;"/>
        </g>
        <g transform="matrix(-1,1.37804e-15,-1.37804e-15,-1,1820.95,1577.74)">
            <path d="M959.439,685.544L959.439,731.064L959.439,731.199C959.366,754.251 940.628,772.944 917.559,772.944C894.445,772.944 875.679,754.178 875.679,731.064L875.679,721.224L891.998,721.224L891.998,731.064L891.999,731.146C892.043,745.216 903.479,756.624 917.559,756.624C931.666,756.624 943.119,745.171 943.119,731.064L943.119,685.864" style="fill:none;stroke:black;stroke-width:2px;stroke-linecap:round;"/>
        </g>
        <g transform="matrix(0.368274,-5.07496e-16,5.07496e-16,0.368274,1072.31,631.313)">
            <path d="M40.523,106.007L40.523,36.646C40.523,30.254 45.713,25.064 52.105,25.064C58.498,25.064 63.687,30.254 63.687,36.646L63.687,89.366" style="fill:none;stroke:black;stroke-width:5.43px;stroke-linecap:round;"/>
        </g>
        <g transform="matrix(-0.368274,5.07496e-16,-5.07496e-16,-0.368274,902.026,952.682)">
            <path d="M40.523,106.007L40.523,36.646C40.523,30.254 45.713,25.064 52.105,25.064C58.498,25.064 63.687,30.254 63.687,36.646L63.687,89.366" style="fill:none;stroke:black;stroke-width:5.43px;stroke-linecap:round;"/>
        </g>
        <g transform="matrix(0.368274,-5.07496e-16,4.49217e-16,0.325983,865.914,557.131)">
            <path d="M647.293,337.31L647.293,307.931C647.293,300.709 642.104,294.846 635.711,294.846C629.319,294.846 624.129,300.709 624.129,307.931L624.129,327.142" style="fill:none;stroke:black;stroke-width:5.75px;stroke-linecap:round;"/>
        </g>
        <g transform="matrix(-0.368274,5.07496e-16,-4.49217e-16,-0.325983,1108.42,1026.86)">
            <path d="M647.293,337.31L647.293,307.931C647.293,300.709 642.104,294.846 635.711,294.846C629.319,294.846 624.129,300.709 624.129,307.931L624.129,327.142" style="fill:none;stroke:black;stroke-width:5.75px;stroke-linecap:round;"/>
        </g>
        <g transform="matrix(0.368274,-5.07496e-16,4.49217e-16,0.325983,874.444,557.131)">
            <path d="M647.293,307.931C647.293,300.709 642.104,294.846 635.711,294.846C629.319,294.846 624.129,300.709 624.129,307.931L624.129,337.31C624.129,344.531 629.319,350.394 635.711,350.394C642.104,350.394 647.293,344.531 647.293,337.31L647.293,307.931Z" style="fill:none;stroke:black;stroke-width:5.75px;stroke-linecap:round;"/>
        </g>
        <g transform="matrix(-0.368274,5.07496e-16,-4.49217e-16,-0.325983,1099.89,1026.86)">
            <path d="M647.293,307.931C647.293,300.709 642.104,294.846 635.711,294.846C629.319,294.846 624.129,300.709 624.129,307.931L624.129,337.31C624.129,344.531 629.319,350.394 635.711,350.394C642.104,350.394 647.293,344.531 647.293,337.31L647.293,307.931Z" style="fill:none;stroke:black;stroke-width:5.75px;stroke-linecap:round;"/>
        </g>
        <g transform="matrix(0.368274,-5.07496e-16,1.01905e-15,0.739495,882.975,422.506)">
            <path d="M647.293,334.168L647.293,308.439C647.293,305.256 642.104,302.671 635.711,302.671C629.319,302.671 624.129,305.256 624.129,308.439L624.129,331.18" style="fill:none;stroke:black;stroke-width:3.42px;stroke-linecap:round;"/>
        </g>
        <g transform="matrix(-0.368274,5.07496e-16,-1.01905e-15,-0.739495,1091.36,1161.49)">
            <path d="M647.293,334.168L647.293,308.439C647.293,305.256 642.104,302.671 635.711,302.671C629.319,302.671 624.129,305.256 624.129,308.439L624.129,331.18" style="fill:none;stroke:black;stroke-width:3.42px;stroke-linecap:round;"/>
        </g>
        <g transform="matrix(0.368274,-5.07496e-16,5.07496e-16,0.368274,857.071,532.243)">
            <path d="M717.633,366.379L717.633,392.354C717.633,414.005 702.75,432.206 682.665,437.277" style="fill:none;stroke:black;stroke-width:5.43px;stroke-linecap:round;"/>
        </g>
        <g transform="matrix(-0.368274,5.07496e-16,-5.07496e-16,-0.368274,1117.27,1051.75)">
            <path d="M717.633,366.379L717.633,392.354C717.633,414.005 702.75,432.206 682.665,437.277" style="fill:none;stroke:black;stroke-width:5.43px;stroke-linecap:round;"/>
        </g>
        <g transform="matrix(0.368274,-5.07496e-16,5.07496e-16,0.368274,857.071,532.243)">
            <path d="M659.594,437.187C639.687,431.994 624.977,413.878 624.977,392.354L624.977,366.379" style="fill:none;stroke:black;stroke-width:5.43px;stroke-linecap:round;"/>
        </g>
        <g transform="matrix(-0.368274,5.07496e-16,-5.07496e-16,-0.368274,1117.27,1051.75)">
            <path d="M659.594,437.187C639.687,431.994 624.977,413.878 624.977,392.354L624.977,366.379" style="fill:none;stroke:black;stroke-width:5.43px;stroke-linecap:round;"/>
        </g>
        <g transform="matrix(0.368274,-5.07496e-16,5.07496e-16,0.368274,857.071,532.243)">
            <path d="M624.977,392.313L624.977,391.533L624.959,391.524C624.952,388.878 626.124,386.21 627.862,383.953L645.482,361.081C649.648,355.673 657.421,354.664 662.829,358.83C668.237,362.996 669.245,370.769 665.079,376.177L657.051,386.599C659.791,389.161 682.837,399.731 676.438,429.629" style="fill:none;stroke:black;stroke-width:5.43px;stroke-linecap:round;"/>
        </g>
        <g transform="matrix(-0.368274,5.07496e-16,-5.07496e-16,-0.368274,1117.27,1051.75)">
            <path d="M624.977,392.313L624.977,391.533L624.959,391.524C624.952,388.878 626.124,386.21 627.862,383.953L645.482,361.081C649.648,355.673 657.421,354.664 662.829,358.83C668.237,362.996 669.245,370.769 665.079,376.177L657.051,386.599C659.791,389.161 682.837,399.731 676.438,429.629" style="fill:none;stroke:black;stroke-width:5.43px;stroke-linecap:round;"/>
        </g>
        <g transform="matrix(1,0,0,1,-7.94806,-3.4433)">
            <path d="M1009.5,733C1009.5,733 1005,741.75 1005,745.5C1005,747.984 1007.02,750 1009.5,750C1011.98,750 1014,747.984 1014,745.5C1014,741.75 1009.5,733 1009.5,733Z" style="fill:none;stroke:black;stroke-width:2px;stroke-linecap:round;"/>
        </g>
        <g transform="matrix(1,0,0,-1,-36.6878,1587.41)">
            <path d="M1009.5,733C1009.5,733 1005,741.75 1005,745.5C1005,747.984 1007.02,750 1009.5,750C1011.98,750 1014,747.984 1014,745.5C1014,741.75 1009.5,733 1009.5,733Z" style="fill:none;stroke:black;stroke-width:2px;stroke-linecap:round;"/>
        </g>
    </g>
</svg>
