<?xml version="1.0" standalone="no"?>
<!DOCTYPE svg PUBLIC "-//W3C//DTD SVG 1.1//EN" "http://www.w3.org/Graphics/SVG/1.1/DTD/svg11.dtd" >
<svg xmlns="http://www.w3.org/2000/svg" xmlns:xlink="http://www.w3.org/1999/xlink" version="1.1">
<metadata>
Created by FontForge 20161116 at Thu Jul 14 10:48:56 2016
 By Jimmy Warting
Helvetica is a trademark of Heidelberger Druckmaschinen AG, which may be registered in certain jurisdictions, exclusively licensed through Linotype Library GmbH, a wholly owned subsidiary of Heidelberger Druckmaschinen AG.
</metadata>
<defs>
<font id="HelveticaNeueLTCYR-Cond" horiz-adv-x="463" >
  <font-face 
    font-family="Helvetica Neue LT Cyrillic"
    font-weight="400"
    font-stretch="normal"
    units-per-em="1000"
    panose-1="2 0 5 3 0 0 0 0 0 0"
    ascent="800"
    descent="-200"
    x-height="535"
    cap-height="712"
    bbox="-19 -214 1000 895"
    underline-thickness="50"
    underline-position="-150"
    unicode-range="U+0020-F8FF"
  />
<missing-glyph horiz-adv-x="512" 
d="M278 117h-56v67h56v-67zM271 234h-46l-2 17q0 56 13 81q15 28 46 59q31 29 40.5 46t9.5 37q0 36 -22.5 60.5t-53.5 24.5q-71 0 -82 -95l-50 8q7 69 43 103t92 34q54 0 89 -36t35 -95q0 -34 -13 -60t-50 -60q-37 -33 -43 -52q-6 -20 -6 -72zM50 50h412v617h-412v-617z
M0 718h512v-718h-512v718z" />
    <glyph glyph-name=".notdef" horiz-adv-x="512" 
d="M278 117h-56v67h56v-67zM271 234h-46l-2 17q0 56 13 81q15 28 46 59q31 29 40.5 46t9.5 37q0 36 -22.5 60.5t-53.5 24.5q-71 0 -82 -95l-50 8q7 69 43 103t92 34q54 0 89 -36t35 -95q0 -34 -13 -60t-50 -60q-37 -33 -43 -52q-6 -20 -6 -72zM50 50h412v617h-412v-617z
M0 718h512v-718h-512v718z" />
    <glyph glyph-name=".null" horiz-adv-x="0" 
 />
    <glyph glyph-name="nonmarkingreturn" horiz-adv-x="333" 
 />
    <glyph glyph-name="space" unicode=" " horiz-adv-x="240" 
 />
    <glyph glyph-name="exclam" unicode="!" horiz-adv-x="258" 
d="M83 712h92v-222l-17 -303h-55l-20 303v222zM83 95h92v-95h-92v95z" />
    <glyph glyph-name="quotedbl" unicode="&#x22;" horiz-adv-x="407" 
d="M148 429h-46l-9 283h65zM303 429h-46l-10 283h66z" />
    <glyph glyph-name="numbersign" unicode="#" horiz-adv-x="480" 
d="M117 0h-64l39 215h-97v57h108l31 167h-98v57h108l41 216h64l-40 -216h111l40 216h64l-40 -216h98v-57h-108l-31 -167h98v-57h-108l-41 -215h-64l40 215h-111zM278 272l32 167h-111l-32 -167h111z" />
    <glyph glyph-name="dollar" unicode="$" horiz-adv-x="480" 
d="M263 779v-70q81 -6 125.5 -52t44.5 -124v-4h-82q-2 50 -21.5 77.5t-66.5 30.5v-235q36 -15 53.5 -22.5t44 -21.5t39 -27.5t26.5 -34t19 -46.5t5 -60q0 -84 -51.5 -143.5t-134.5 -59.5h-1v-86h-43v86q-96 2 -142.5 59.5t-46.5 155.5v11h84q-1 -8 -1 -16q0 -58 25.5 -98.5
t80.5 -41.5v272q-86 29 -130.5 72.5t-44.5 123.5t46 128t129 56v70h43zM220 418v219q-44 -6 -68 -33t-24 -72q0 -78 92 -114zM263 314v-257q47 5 75 40t28 91q0 53 -24.5 79t-78.5 47z" />
    <glyph glyph-name="percent" unicode="%" horiz-adv-x="759" 
d="M50 520q0 42 4 70t16 58.5t39.5 46t70.5 15.5q34 0 58 -11t37 -27.5t20.5 -44t9 -50.5t1.5 -57t-2 -57.5t-9.5 -51t-21 -43.5t-39 -27.5t-61.5 -11.5q-34 0 -57.5 11.5t-36 28t-19.5 44.5t-8.5 50.5t-1.5 56.5zM504 717h63l-314 -730h-64zM121 520q0 -86 12 -109
q13 -26 44 -26q14 0 24.5 4.5t16.5 17t9.5 21.5t5 30t1.5 29v33q0 84 -10 106q-13 28 -46 28q-20 0 -32 -10t-17 -32t-6.5 -40.5t-1.5 -51.5zM454 183q0 42 4 70t16 58.5t39.5 46t70.5 15.5q34 0 58 -11t37 -27.5t20.5 -44t9 -50.5t1.5 -57t-2 -57.5t-9.5 -51t-21 -43.5
t-39 -27.5t-61.5 -11.5q-34 0 -57.5 11.5t-36 28t-19.5 44.5t-8.5 50.5t-1.5 56.5zM525 183q0 -86 12 -109q13 -26 44 -26q14 0 24.5 4.5t16.5 17t9.5 21.5t5 30t1.5 29v33q0 84 -10 106q-13 28 -46 28q-20 0 -32 -10t-17 -32t-6.5 -40.5t-1.5 -51.5z" />
    <glyph glyph-name="ampersand" unicode="&#x26;" horiz-adv-x="556" 
d="M442 334h77q-2 -116 -57 -205l91 -129h-94l-48 70q-67 -83 -180 -83q-91 0 -149 55t-58 141q0 38 11 70t35 60t45 46.5t57 45.5q-1 2 -13.5 20.5t-15.5 23.5t-13.5 21.5t-13.5 25t-9 22.5t-8 26.5t-2 24.5q0 61 43 99.5t110 38.5t106.5 -37.5t39.5 -100.5
q0 -95 -124 -172l142 -200q25 44 28 137zM234 449q86 64 86 122q0 33 -19.5 51.5t-52.5 18.5t-53 -18.5t-20 -48.5q0 -44 59 -125zM213 352q-43 -26 -73 -69.5t-30 -90.5q0 -58 38 -96t96 -38q77 0 127 71z" />
    <glyph glyph-name="quotesingle" unicode="'" horiz-adv-x="240" 
d="M143 429h-45l-10 283h65z" />
    <glyph glyph-name="parenleft" unicode="(" horiz-adv-x="241" 
d="M192 720h48q-64 -127 -89 -222t-25 -227q0 -126 27 -231t87 -218h-48q-142 215 -142 451q0 226 142 447z" />
    <glyph glyph-name="parenright" unicode=")" horiz-adv-x="241" 
d="M190 273q0 -236 -142 -451h-48q60 113 87 218t27 231q0 132 -25 227t-89 222h48q142 -221 142 -447z" />
    <glyph glyph-name="asterisk" unicode="*" horiz-adv-x="352" 
d="M148 716h57v-68q0 -31 -4 -56q13 11 41 20l70 26l20 -51l-68 -26q-20 -7 -44 -14q18 -18 36 -41l42 -54l-45 -35l-43 55q-21 27 -33 50q-27 -43 -33 -50l-40 -55l-47 35l41 53q14 19 37 42q-6 2 -15.5 4t-16.5 4t-11 3l-74 25l20 55l69 -26q20 -8 44 -20q-3 22 -3 58v66z
" />
    <glyph glyph-name="plus" unicode="+" horiz-adv-x="600" 
d="M268 61v216h-218v60h218v215h66v-215h218v-60h-218v-216h-66z" />
    <glyph glyph-name="comma" unicode="," horiz-adv-x="240" 
d="M74 105h94v-85q0 -68 -18.5 -109.5t-75.5 -57.5v48q20 6 30.5 24.5t12.5 34t2 40.5h-45v105z" />
    <glyph glyph-name="hyphen" unicode="-" horiz-adv-x="352" 
d="M55 324h242v-78h-242v78z" />
    <glyph glyph-name="period" unicode="." horiz-adv-x="240" 
d="M73 105h94v-105h-94v105z" />
    <glyph glyph-name="slash" unicode="/" horiz-adv-x="278" 
d="M218 719h68l-225 -728h-69z" />
    <glyph glyph-name="zero" unicode="0" horiz-adv-x="480" 
d="M243 714q45 0 79 -15t55 -44t34.5 -60.5t19.5 -75t8 -75.5t2 -74q0 -44 -0.5 -71t-5 -72t-12 -74.5t-23 -64t-37 -55t-55 -34.5t-76.5 -14q-39 0 -70 13.5t-51 33t-34 52t-21 60t-11 68.5t-4.5 66t-0.5 63q0 47 1.5 79.5t7 81.5t19 82t35 65t57.5 48.5t83 16.5zM242 645
q-36 0 -60 -21t-35.5 -64.5t-15.5 -92.5t-4 -122q0 -51 1 -83.5t4.5 -69.5t11 -59.5t19.5 -42.5t30.5 -28.5t43.5 -8.5q27 0 47 10.5t32.5 33t20.5 47t11.5 65.5t4.5 74.5t1 85.5v15v43t-2 46.5t-6 50.5t-12 45t-20 40t-30.5 25.5t-41.5 10.5z" />
    <glyph glyph-name="one" unicode="1" horiz-adv-x="480" 
d="M71 587h8q82 0 121 29t44 93h63v-709h-85v530h-151v57z" />
    <glyph glyph-name="two" unicode="2" horiz-adv-x="480" 
d="M45 483v6q0 103 49 162t149 59q91 0 141 -52t50 -146q0 -25 -4.5 -48.5t-9 -40.5t-18.5 -37.5t-20.5 -30.5t-28 -31t-28 -27t-34 -29t-34.5 -29q-56 -48 -86 -87.5t-37 -80.5q6 0 20 1.5t20 1.5h265v-74h-394v6q0 86 39 153.5t113 130.5l59 50q51 43 70.5 81t19.5 91
q0 62 -27.5 95.5t-78.5 33.5q-110 0 -110 -158h-85z" />
    <glyph glyph-name="three" unicode="3" horiz-adv-x="480" 
d="M36 192h85q6 -140 110 -140q55 0 86 37.5t31 105.5q0 61 -27 98q-19 26 -43 34.5t-80 8.5h-23v63h13q72 0 105.5 27.5t33.5 100.5q0 55 -25.5 85t-71.5 30q-54 0 -77.5 -39t-23.5 -97h-83q0 96 46 149t140 53q85 0 133.5 -47.5t48.5 -129.5q0 -64 -31 -107t-84 -53
q66 -8 101.5 -52t35.5 -118q0 -101 -54.5 -158.5t-154.5 -57.5q-89 0 -139.5 55t-51.5 152z" />
    <glyph glyph-name="four" unicode="4" horiz-adv-x="480" 
d="M33 172v80l253 459h85v-466h80v-73h-80v-172h-82v172h-256zM102 243q7 2 29 2h158v233q0 69 9 122q-18 -45 -40 -84l-119 -214q-27 -48 -37 -59z" />
    <glyph glyph-name="five" unicode="5" horiz-adv-x="480" 
d="M38 183h85v-7q0 -56 28.5 -89t77.5 -33q56 0 87 45.5t31 129.5q0 80 -30.5 122t-88.5 42q-75 0 -100 -66l-75 5l39 366h315v-75h-249l-16 -131q-10 -74 -13 -85q42 56 122 56q86 0 135.5 -62t49.5 -171q0 -116 -55.5 -180.5t-154.5 -64.5q-88 0 -138 51.5t-50 141.5v5z
" />
    <glyph glyph-name="six" unicode="6" horiz-adv-x="480" 
d="M427 545h-86q-2 48 -26.5 74.5t-67.5 26.5q-72 0 -99 -80q-22 -66 -27 -196q44 85 144 85q86 0 134 -59t48 -166q0 -108 -51.5 -176.5t-155.5 -68.5q-46 0 -81.5 15t-57 44.5t-35 60.5t-19.5 76.5t-7.5 78t-1.5 77.5q0 46 2 81.5t8.5 83t21.5 82t37 66t59.5 48t85.5 16.5
q80 0 126.5 -44.5t48.5 -124.5zM246 54q53 0 82.5 44.5t29.5 123.5q0 163 -114 163q-53 0 -81.5 -40t-28.5 -113q0 -178 112 -178z" />
    <glyph glyph-name="seven" unicode="7" horiz-adv-x="480" 
d="M37 698h403v-73q-99 -132 -152 -278t-83 -347h-95q36 332 255 624q-20 -5 -63 -5h-265v79z" />
    <glyph glyph-name="eight" unicode="8" horiz-adv-x="480" 
d="M161 382q-49 11 -76 55.5t-27 97.5q0 82 48.5 130t131.5 48q85 0 134 -48t49 -130q0 -58 -28 -100.5t-72 -52.5q58 -14 89.5 -62t31.5 -123q0 -100 -53.5 -156t-148.5 -56t-149 56.5t-54 155.5q0 73 32.5 121.5t91.5 63.5zM145 530q0 -55 25 -85.5t70 -30.5t69.5 30
t24.5 85q0 56 -25 86.5t-71 30.5q-45 0 -69 -30t-24 -86zM126 199q0 -71 30 -109.5t85 -38.5q56 0 85 38t29 111q0 70 -30 107.5t-86 37.5q-55 0 -84 -37.5t-29 -108.5z" />
    <glyph glyph-name="nine" unicode="9" horiz-adv-x="480" 
d="M55 155h85q2 -49 26 -75.5t67 -26.5q37 0 62 19t36 55t16 68t8.5 77t6.5 64q-23 -48 -58 -70t-87 -22q-86 0 -134.5 60t-48.5 166q0 113 55.5 178.5t151.5 65.5q46 0 81.5 -15t56.5 -44t35 -60t19.5 -76t7.5 -77.5t2 -77.5q0 -39 -1 -69.5t-6 -72t-14 -72.5t-25 -63.5
t-38 -53.5t-55.5 -34.5t-75.5 -13.5q-79 0 -124.5 45t-48.5 125zM236 646q-52 0 -82 -45t-30 -125q0 -77 29.5 -119.5t83.5 -42.5q53 0 82 39.5t29 112.5q0 31 -4.5 59t-16 57t-35 46.5t-56.5 17.5z" />
    <glyph glyph-name="colon" unicode=":" horiz-adv-x="240" 
d="M73 504h94v-105h-94v105zM73 105h94v-105h-94v105z" />
    <glyph glyph-name="semicolon" unicode=";" horiz-adv-x="240" 
d="M73 504h94v-105h-94v105zM73 105h94v-85q0 -68 -18.5 -109.5t-75.5 -57.5v48q20 6 30.5 24.5t12.5 34t2 40.5h-45v105z" />
    <glyph glyph-name="less" unicode="&#x3c;" horiz-adv-x="600" 
d="M48 272v65l502 200v-67l-423 -165l423 -165v-67z" />
    <glyph glyph-name="equal" unicode="=" horiz-adv-x="600" 
d="M49 370v60h502v-60h-502zM49 180v60h502v-60h-502z" />
    <glyph glyph-name="greater" unicode="&#x3e;" horiz-adv-x="600" 
d="M550 272l-502 -199v67l423 165l-423 165v67l502 -200v-65z" />
    <glyph glyph-name="question" unicode="?" horiz-adv-x="444" 
d="M34 505v10q0 97 49.5 151.5t137.5 54.5q85 0 134.5 -50t49.5 -137q0 -92 -69 -166l-34 -36q-32 -34 -42.5 -62t-10.5 -74v-10h-80v11q0 62 13 97.5t54 80.5l34 37q50 56 50 127q0 53 -26.5 83.5t-72.5 30.5q-104 0 -104 -148h-83zM165 95h93v-95h-93v95z" />
    <glyph glyph-name="at" unicode="@" horiz-adv-x="800" 
d="M507 428q0 38 -22 63.5t-59 25.5q-61 0 -102 -67.5t-41 -133.5q0 -43 20.5 -74.5t61.5 -31.5q42 0 76.5 40t50 89t15.5 89zM700 121l22 -29q-75 -54 -146.5 -79.5t-157.5 -25.5q-162 0 -274.5 97.5t-112.5 259.5q0 165 118 272.5t285 107.5q140 0 237 -79t97 -216
q0 -77 -37 -147t-104 -99q-33 -14 -62 -14q-32 0 -55 19.5t-23 50.5q0 13 6 33q-51 -102 -144 -102q-63 0 -98.5 43t-35.5 107q0 87 57 162t141 75q46 0 78.5 -23t41.5 -66l22 75h58l-59 -196q-20 -62 -20 -93q0 -44 46 -44q35 0 72 33q37 32 56.5 83.5t19.5 104.5
q0 119 -85.5 186.5t-208.5 67.5q-152 0 -257.5 -96.5t-105.5 -245.5q0 -145 102 -231.5t247 -86.5q142 0 280 96z" />
    <glyph glyph-name="A" unicode="A" horiz-adv-x="500" 
d="M197 712h115l197 -712h-93l-52 195h-228l-54 -195h-91zM253 656q-5 -36 -16 -77l-83 -312h193l-78 311q-7 27 -15 78h-1z" />
    <glyph glyph-name="B" unicode="B" horiz-adv-x="519" 
d="M58 712h194q100 0 152.5 -41t52.5 -141q0 -56 -27.5 -96t-76.5 -56q62 -14 95 -59t33 -115q0 -100 -59 -152t-164 -52h-200v712zM145 642v-236h90q69 0 102 27t33 93q0 69 -36 92.5t-107 23.5h-82zM145 340v-271h66q48 0 84 4q47 7 72.5 41.5t25.5 90.5q0 70 -47 108
q-20 16 -43.5 21.5t-77.5 5.5h-80z" />
    <glyph glyph-name="C" unicode="C" horiz-adv-x="519" 
d="M398 244h87q-9 -259 -216 -259q-60 0 -103 23t-66 56.5t-36.5 86t-16.5 95.5t-3 100q0 60 3 104.5t16.5 99.5t37 90t67 59.5t104.5 24.5q100 0 153 -56.5t55 -165.5h-87q-6 151 -121 151q-29 0 -51.5 -12t-36.5 -28.5t-24.5 -45t-15 -51t-7 -58t-3 -53.5t-0.5 -50v-10
v-47.5t2.5 -51t7 -56.5t14.5 -49.5t24.5 -45t37 -27.5t51.5 -12q121 0 127 188z" />
    <glyph glyph-name="D" unicode="D" horiz-adv-x="556" 
d="M64 712h166q66 0 103.5 -9t68.5 -31q102 -71 102 -297q0 -216 -75 -307q-33 -41 -76.5 -54.5t-106.5 -13.5h-182v712zM151 641v-570h76q95 0 133 44q55 64 55 256q0 183 -69 240q-20 17 -50.5 23.5t-90.5 6.5h-54z" />
    <glyph glyph-name="E" unicode="E" 
d="M61 712h367v-76h-281v-227h265v-75h-265v-258h292v-76h-378v712z" />
    <glyph glyph-name="F" unicode="F" horiz-adv-x="444" 
d="M59 712h365v-76h-278v-227h262v-74h-262v-335h-87v712z" />
    <glyph glyph-name="G" unicode="G" horiz-adv-x="537" 
d="M269 368h222v-368h-67v96q-42 -111 -160 -111q-48 0 -85 16.5t-59.5 47t-37.5 64.5t-21.5 79.5t-9 81t-2.5 79.5q0 57 3.5 101t17 98t37 89t67 59t103.5 24q97 0 150 -54.5t56 -156.5h-87q-3 68 -33.5 104t-85.5 36q-29 0 -52 -12t-37.5 -28.5t-25 -46t-15 -51.5
t-7.5 -59t-3 -54v-50v-15q0 -147 33.5 -214.5t105.5 -67.5q43 0 72 22.5t41 62t16 73.5t4 77v8h-140v70z" />
    <glyph glyph-name="H" unicode="H" horiz-adv-x="537" 
d="M147 419h243v293h87v-712h-87v343h-243v-343h-87v712h87v-293z" />
    <glyph glyph-name="I" unicode="I" horiz-adv-x="204" 
d="M58 712h88v-712h-88v712z" />
    <glyph glyph-name="J" unicode="J" horiz-adv-x="426" 
d="M21 209h85v-11q0 -24 1 -39t5.5 -36.5t12.5 -34t24.5 -22t40.5 -9.5q22 0 38 5.5t25.5 19t15 24.5t7.5 33t2.5 32.5t0.5 35.5v505h87v-493q0 -56 -6 -93t-24 -71.5t-55.5 -51t-95.5 -16.5q-94 0 -129 55t-35 156v11z" />
    <glyph glyph-name="K" unicode="K" horiz-adv-x="500" 
d="M64 712h86v-305q0 -32 -2 -53q22 39 30 50l219 308h97l-214 -297l236 -415h-100l-193 342l-73 -99v-243h-86v712z" />
    <glyph glyph-name="L" unicode="L" horiz-adv-x="444" 
d="M58 712h88v-636h291v-76h-379v712z" />
    <glyph glyph-name="M" unicode="M" horiz-adv-x="704" 
d="M66 712h140l87 -331q50 -193 60 -294h2q10 107 45 242l96 383h142v-712h-84v499q0 49 7 158h-6q-9 -49 -24 -109l-139 -548h-81l-135 521q-6 24 -12.5 53.5t-11 53.5t-5.5 29h-6q7 -114 7 -199v-458h-82v712z" />
    <glyph glyph-name="N" unicode="N" horiz-adv-x="556" 
d="M60 712h113l158 -386q58 -140 86 -260h4q-9 81 -9 191v455h83v-712h-115l-162 400q-66 161 -80 246h-5q10 -67 10 -199l1 -447h-84v712z" />
    <glyph glyph-name="O" unicode="O" horiz-adv-x="556" 
d="M49 357q0 190 56 278.5t176 88.5q117 0 171 -84.5t54 -266.5q0 -42 -1.5 -74t-6.5 -74.5t-14 -73.5t-26.5 -64t-41.5 -53.5t-60.5 -34t-81.5 -13.5q-59 0 -102 24.5t-66 60t-36.5 89.5t-17 97.5t-3.5 99.5zM138 355q0 -159 32 -229.5t105 -70.5q75 0 108.5 70t33.5 227
q0 164 -31.5 232.5t-106.5 68.5q-29 0 -52 -11.5t-37.5 -27.5t-25 -43.5t-15.5 -49.5t-7.5 -56.5t-3 -52.5t-0.5 -49v-8z" />
    <glyph glyph-name="P" unicode="P" horiz-adv-x="481" 
d="M56 712h186q212 0 212 -204q0 -207 -214 -207h-98v-301h-86v712zM142 642v-271h78q74 0 110 30t36 107q0 79 -39.5 106.5t-118.5 27.5h-66z" />
    <glyph glyph-name="Q" unicode="Q" horiz-adv-x="556" 
d="M478 -42l-75 68q-54 -40 -129 -40q-57 0 -99.5 23.5t-65.5 58.5t-36.5 87t-17.5 96.5t-4 100.5q0 57 4 102t18 98t38 88.5t68 59.5t104 24q116 0 169.5 -84.5t53.5 -266.5q0 -220 -57 -297l76 -68zM279 138l47 51l62 -58q30 61 30 229q0 139 -21 200q-32 93 -116 93
q-78 0 -110 -68.5t-32 -233.5v-47t2.5 -52.5t7.5 -58t15 -51t24 -46t36.5 -29t51.5 -12.5q44 0 71 22z" />
    <glyph glyph-name="R" unicode="R" horiz-adv-x="519" 
d="M56 712h209q95 0 148 -46t53 -140q0 -68 -29.5 -113.5t-83.5 -59.5q69 -14 88 -60q11 -25 15 -56t8 -125q1 -28 2 -42t9.5 -36.5t25.5 -32.5v-1h-106q-17 26 -20 103l-2 60q-2 63 -9.5 89t-27.5 44q-27 23 -108 23h-86v-319h-86v712zM142 642v-256h95q43 0 72 9
q32 11 50.5 44t18.5 79q0 68 -36 96t-103 28h-97z" />
    <glyph glyph-name="S" unicode="S" horiz-adv-x="500" 
d="M31 223h88v-13q0 -154 125 -154q62 0 96 33t34 94q0 50 -24.5 79.5t-79.5 48.5l-70 24q-83 29 -120.5 74.5t-37.5 119.5q0 92 54 143t152 51q95 0 145.5 -48.5t50.5 -140.5v-7h-87q0 62 -25 94t-87 32q-56 0 -86 -29.5t-30 -84.5q0 -50 28 -81t92 -53l68 -23
q77 -26 112.5 -69t35.5 -121q0 -98 -58 -151.5t-165 -53.5q-110 0 -160.5 55.5t-50.5 167.5v13z" />
    <glyph glyph-name="T" unicode="T" 
d="M9 712h445v-76h-178v-636h-86v636h-181v76z" />
    <glyph glyph-name="U" unicode="U" horiz-adv-x="519" 
d="M51 712h87v-479q0 -30 1.5 -51.5t8.5 -47t19.5 -41t35.5 -26.5t55 -11q39 0 64.5 14t37.5 41t16 54t4 65v482h88v-480q0 -120 -49.5 -183t-167.5 -63q-104 0 -152 60.5t-48 166.5v499z" />
    <glyph glyph-name="V" unicode="V" horiz-adv-x="462" 
d="M-2 712h93l118 -509q16 -74 22 -138h3q19 127 22 138l119 509h90l-178 -712h-112z" />
    <glyph glyph-name="W" unicode="W" horiz-adv-x="722" 
d="M8 712h89l78 -417q26 -144 30 -216h3q2 38 5.5 72t6 50t9.5 53t9 49l72 409h104l76 -425q24 -138 27 -208h3q4 67 32 222l76 411h87l-145 -712h-107l-78 437q-19 109 -23 187h-3q-1 -65 -22 -183l-78 -441h-108z" />
    <glyph glyph-name="X" unicode="X" horiz-adv-x="481" 
d="M16 712h97l92 -191q29 -59 38 -91h1q11 43 37 94l94 188h93l-178 -350l189 -362h-97l-116 231q-20 41 -26 69h-1q-9 -33 -28 -72l-115 -228h-94l190 362z" />
    <glyph glyph-name="Y" unicode="Y" horiz-adv-x="462" 
d="M-1 712h97l106 -263q22 -56 29 -91h1q12 46 30 90l110 264h92l-191 -433v-279h-86v279z" />
    <glyph glyph-name="Z" unicode="Z" 
d="M40 712h396v-79l-288 -502q-30 -49 -36 -58q21 3 37 3h293v-76h-422v74l291 507q4 7 16.5 27t18.5 29q-3 -1 -7 -1h-299v76z" />
    <glyph glyph-name="bracketleft" unicode="[" horiz-adv-x="259" 
d="M83 712h178v-63h-101v-754h101v-64h-178v881z" />
    <glyph glyph-name="backslash" unicode="\" horiz-adv-x="278" 
d="M286 -9h-69l-225 728h68z" />
    <glyph glyph-name="bracketright" unicode="]" horiz-adv-x="259" 
d="M176 -169h-178v64h101v753h-101v64h178v-881z" />
    <glyph glyph-name="asciicircum" unicode="^" horiz-adv-x="600" 
d="M99 294l169 418h63l169 -418h-69l-133 339l-130 -339h-69z" />
    <glyph glyph-name="underscore" unicode="_" horiz-adv-x="500" 
d="M0 -125v50h500v-50h-500z" />
    <glyph glyph-name="grave" unicode="`" horiz-adv-x="204" 
d="M-16 733h100l68 -142h-62z" />
    <glyph glyph-name="a" unicode="a" horiz-adv-x="444" 
d="M46 376q0 90 41 132t131 42q84 0 127 -39q21 -18 29.5 -44t8.5 -72v-277v-9.5v-10.5t0.5 -9.5t2 -9.5t3.5 -7t5.5 -7t8.5 -3.5t12 -1.5q5 0 16 3v-59q-21 -7 -46 -7q-75 0 -79 68q-45 -74 -137 -74q-67 0 -102.5 39t-35.5 111q0 43 10 72t35 47.5t47.5 27.5t66.5 22
q74 22 92 33q20 13 20 58q0 87 -86 87q-52 0 -72 -29t-20 -83h-78zM304 295q-8 -9 -22.5 -17t-25 -11.5t-31 -10t-24.5 -7.5q-46 -14 -65.5 -36.5t-19.5 -68.5q0 -88 77 -88q47 0 78 32t31 84v78q0 33 2 45z" />
    <glyph glyph-name="b" unicode="b" 
d="M138 712v-189q0 -33 -2 -52q43 76 125 76q164 0 164 -272q0 -142 -44 -214.5t-130 -72.5q-84 0 -120 79q2 -11 2 -38v-29h-78v712h83zM134 266q0 -30 1 -50t6 -53.5t15 -54t30.5 -36.5t49.5 -16q24 0 42.5 10.5t29.5 31t17.5 40t9.5 49t3.5 46t0.5 41.5q0 109 -23 157
t-76 48q-25 0 -44 -10t-30 -30t-18 -39t-10 -47.5t-3.5 -45t-0.5 -41.5z" />
    <glyph glyph-name="c" unicode="c" horiz-adv-x="426" 
d="M315 187h81q-2 -93 -45.5 -146.5t-133.5 -53.5q-57 0 -95 24.5t-55.5 68.5t-24 87.5t-6.5 100.5q0 56 7 100t25.5 88.5t58.5 69t99 24.5q83 0 126.5 -51t43.5 -129h-84v5q0 54 -23 81.5t-65 27.5q-55 0 -79 -50.5t-24 -163.5q0 -27 0.5 -42t3 -45.5t9 -49t17.5 -39.5
t29.5 -31t43.5 -10q88 0 91 134z" />
    <glyph glyph-name="d" unicode="d" 
d="M408 712v-712h-76v28q0 9 2 43q-21 -44 -51 -64t-77 -20q-85 0 -126 69.5t-41 212.5q0 278 169 278q86 0 119 -70q-1 12 -1 37v198h82zM124 268v-6q0 -32 0.5 -51.5t6 -53t15 -53t29.5 -35t49 -15.5q25 0 44 10t30 29.5t18 38.5t10 47.5t3.5 45t0.5 42.5q0 29 -0.5 43
t-3 44.5t-9 47.5t-17.5 37.5t-30 30t-44 9.5q-22 0 -39 -8.5t-27.5 -19.5t-18 -33t-10.5 -35.5t-5 -41.5t-2 -37.5v-35.5z" />
    <glyph glyph-name="e" unicode="e" horiz-adv-x="444" 
d="M125 259v-7q0 -108 24 -154.5t78 -46.5q87 0 96 124h80q-7 -91 -52 -140t-129 -49q-94 0 -138.5 68.5t-44.5 211.5t47 212.5t144 69.5q93 0 135.5 -65t42.5 -207v-17h-283zM127 321h194q0 31 -2.5 54t-11 51t-28.5 43t-51 15q-101 0 -101 -163z" />
    <glyph glyph-name="f" unicode="f" horiz-adv-x="259" 
d="M5 535h79v28q0 88 27 121t110 33q7 0 19 -0.5t19 -0.5v-69h-16q-52 0 -64 -12t-12 -66v-34h92v-68h-92v-467h-83v467h-79v68z" />
    <glyph glyph-name="g" unicode="g" 
d="M57 -51h80q9 -67 85 -67q107 0 107 120v49q0 9 3 27q-46 -76 -126 -76q-163 0 -163 266q0 280 170 280q84 0 122 -78q-3 28 -3 49v16h78v-488q0 -51 -7 -88t-26 -71t-58.5 -52t-98.5 -18q-152 0 -163 131zM129 272q0 -30 0.5 -48.5t5.5 -51.5t14.5 -52.5t29 -35
t47.5 -15.5q30 0 51 15.5t31.5 36t16 53.5t6.5 53.5t1 51.5q0 104 -24.5 152t-77.5 48q-54 0 -77.5 -48.5t-23.5 -158.5z" />
    <glyph glyph-name="h" unicode="h" 
d="M139 712v-189q0 -24 -3 -51q45 77 136 77q135 0 135 -161v-388h-83v344q0 73 -11 97q-19 37 -70 38q-42 0 -73 -30t-31 -72v-377h-83v712h83z" />
    <glyph glyph-name="i" unicode="i" horiz-adv-x="204" 
d="M60 535h83v-535h-83v535zM60 712h83v-98h-83v98z" />
    <glyph glyph-name="j" unicode="j" horiz-adv-x="204" 
d="M68 535h83v-564q0 -81 -29.5 -117.5t-110.5 -36.5q-15 0 -28 1v69q7 -1 25 -1q37 0 48.5 20.5t11.5 67.5v561zM68 712h83v-98h-83v98z" />
    <glyph glyph-name="k" unicode="k" horiz-adv-x="444" 
d="M62 712h81v-403q0 -15 -1 -24q10 15 32 45l158 205h98l-162 -201l190 -334h-98l-148 265l-69 -85v-180h-81v712z" />
    <glyph glyph-name="l" unicode="l" horiz-adv-x="204" 
d="M60 712h83v-712h-83v712z" />
    <glyph glyph-name="m" unicode="m" horiz-adv-x="722" 
d="M64 535h77v-14q0 -33 -2 -49q46 76 133 76q91 0 119 -83q50 85 135 85q46 0 80.5 -21.5t45.5 -62.5q7 -28 7 -94v-372h-84v373q0 25 -1.5 39.5t-7.5 32t-21.5 26t-40.5 8.5q-62 0 -92 -58q-10 -20 -10 -62v-359h-83v402q0 37 -19 57t-53 20q-65 0 -92 -59q-9 -18 -9 -62
v-358h-82v535z" />
    <glyph glyph-name="n" unicode="n" 
d="M134 535v-16q0 -15 -2 -49q47 79 141 79q70 0 106 -48q28 -37 28 -120v-381h-83v338q0 76 -11 100q-17 41 -70 41q-54 0 -87 -46q-17 -23 -17 -71v-362h-83v535h78z" />
    <glyph glyph-name="o" unicode="o" horiz-adv-x="444" 
d="M32 266q0 137 44.5 209t150.5 72q97 0 141 -66.5t44 -213.5q0 -148 -46.5 -214t-150.5 -66q-95 0 -139 67t-44 212zM117 263q0 -106 22 -158.5t82 -52.5q56 0 81 51t25 167q0 115 -23.5 163.5t-78.5 48.5q-58 0 -83 -51t-25 -168z" />
    <glyph glyph-name="p" unicode="p" 
d="M133 535v-26q0 -30 -2 -44q32 82 127 82q43 0 75 -17.5t49 -43.5t27 -65t12.5 -71t2.5 -72q0 -290 -172 -290q-79 0 -115 71q1 -16 1 -47v-191h-83v714h78zM134 275q0 -27 0.5 -42t3 -46t9 -49.5t17.5 -39.5t29.5 -31.5t43.5 -10.5q24 0 42.5 10.5t29.5 31t17.5 40
t9.5 48.5t3.5 45.5t0.5 41.5q0 111 -23 158.5t-76 47.5q-30 0 -51.5 -15t-32 -34.5t-16 -51.5t-6.5 -52.5t-1 -50.5z" />
    <glyph glyph-name="q" unicode="q" 
d="M410 535v-714h-82v191q0 31 2 48q-36 -73 -123 -73q-168 0 -168 276q0 284 169 284q84 0 123 -81q-2 16 -2 43v26h81zM125 260q0 -26 0.5 -40.5t3 -43.5t9 -46.5t16.5 -37t28 -29t42 -9.5q25 0 44.5 10.5t30 31.5t17.5 39.5t9.5 49.5t3 46t0.5 42t-0.5 41t-3 43t-9 46.5
t-17 36.5t-29 28.5t-43.5 9.5q-19 0 -34.5 -5.5t-26 -18.5t-18 -23.5t-12 -32.5t-7 -33.5t-3.5 -37.5t-1 -34v-33z" />
    <glyph glyph-name="r" unicode="r" horiz-adv-x="296" 
d="M60 535h81v-34q0 -33 -2 -50q20 44 54.5 69t76.5 25q14 0 27 -2v-83q-18 3 -29 3q-52 0 -84 -28q-42 -35 -42 -97v-338h-82v535z" />
    <glyph glyph-name="s" unicode="s" horiz-adv-x="407" 
d="M27 173h78v-6q0 -61 23 -89t73 -28q45 0 70 23t25 64q0 65 -72 90l-65 23q-68 24 -95.5 57t-27.5 92q0 70 43.5 108t123.5 38q81 0 120 -39.5t39 -122.5v-6h-79v5q0 53 -19 76.5t-63 23.5q-41 0 -63.5 -20t-22.5 -56t21.5 -55.5t62.5 -32.5q91 -30 124 -52
q54 -36 54 -117q0 -82 -49.5 -122.5t-132.5 -40.5q-91 0 -129.5 45.5t-38.5 137.5v4z" />
    <glyph glyph-name="t" unicode="t" horiz-adv-x="259" 
d="M2 535h79v150h83v-150h93v-68h-93v-332q0 -21 1 -30.5t6.5 -20.5t17.5 -15t33 -4q10 0 35 3v-67q-30 -5 -62 -5q-71 0 -92.5 29.5t-21.5 100.5v341h-79v68z" />
    <glyph glyph-name="u" unicode="u" 
d="M55 535h85v-368q0 -51 15.5 -80.5t62.5 -29.5q65 0 96 58q10 18 10 50v370h82v-535h-77q1 23 1 31q0 21 1 33q-53 -78 -139 -78q-76 0 -106.5 47t-30.5 130v372z" />
    <glyph glyph-name="v" unicode="v" horiz-adv-x="406" 
d="M12 535h90l86 -351q13 -52 19 -103h4q3 46 22 129l73 325h89l-140 -535h-97z" />
    <glyph glyph-name="w" unicode="w" horiz-adv-x="648" 
d="M13 535h87l59 -295q24 -118 27 -165h3q3 52 28 171l60 289h98l65 -311q21 -103 23 -149h3q5 52 25 159l57 301h87l-124 -535h-92l-64 281q-24 111 -29 179h-3q-5 -62 -21 -139l-67 -321h-98z" />
    <glyph glyph-name="x" unicode="x" horiz-adv-x="406" 
d="M13 535h95l79 -158q1 -2 19 -44q6 18 18 43l77 159h91l-139 -258l146 -277h-92l-80 160q-19 41 -25 57q-30 -66 -31 -68l-73 -149h-90l146 277z" />
    <glyph glyph-name="y" unicode="y" horiz-adv-x="406" 
d="M13 535h90l85 -331q20 -83 24 -123h1q4 53 17 111l78 343h89q-129 -486 -138 -517l-17 -58q-11 -38 -20.5 -59.5t-26 -42.5t-42 -30t-62.5 -9q-17 0 -51 2v69q30 -2 44 -2q52 0 71 53l16 44z" />
    <glyph glyph-name="z" unicode="z" horiz-adv-x="389" 
d="M35 535h323v-68l-217 -358q-12 -20 -28 -41q17 2 52 2h190v-70h-333v65l216 355q10 17 32 49q-21 -3 -62 -3h-173v69z" />
    <glyph glyph-name="braceleft" unicode="{" horiz-adv-x="259" 
d="M258 -180q-32 2 -56.5 9.5t-40.5 17.5t-27 28t-16.5 32t-8 40t-3 41t-0.5 45v66q0 80 -18.5 111.5t-87.5 37.5v44q69 6 87.5 37.5t18.5 111.5v66q0 30 0.5 45t3 41t8 40t16.5 32t27 28t40.5 17.5t56.5 9.5v-43q-25 -2 -42 -11.5t-25.5 -20.5t-13 -31t-5 -32.5t-0.5 -35.5
v-81q0 -36 -0.5 -51.5t-3 -42.5t-9.5 -40t-18 -28.5t-30 -22.5t-45 -10q26 -3 45 -10t30 -22.5t18 -28.5t9.5 -40t3 -42.5t0.5 -51.5v-81q0 -23 0.5 -35.5t5 -32.5t13 -31t25.5 -20.5t42 -11.5v-43z" />
    <glyph glyph-name="bar" unicode="|" horiz-adv-x="222" 
d="M79 -214v1000h65v-1000h-65z" />
    <glyph glyph-name="braceright" unicode="}" horiz-adv-x="259" 
d="M258 248q-69 -6 -87.5 -37.5t-18.5 -111.5v-66q0 -30 -0.5 -45t-3 -41t-8 -40t-16.5 -32t-27 -28t-40.5 -17.5t-56.5 -9.5v43q25 2 42 11.5t25.5 20.5t13 31t5 32.5t0.5 35.5v81q0 36 0.5 51.5t3 42.5t9.5 40t18 28.5t30 22.5t45 10q-26 3 -45 10t-30 22.5t-18 28.5
t-9.5 40t-3 42.5t-0.5 51.5v81q0 23 -0.5 35.5t-5 32.5t-13 31t-25.5 20.5t-42 11.5v43q32 -2 56.5 -9.5t40.5 -17.5t27 -28t16.5 -32t8 -40t3 -41t0.5 -45v-66q0 -80 18.5 -111.5t87.5 -37.5v-44z" />
    <glyph glyph-name="asciitilde" unicode="~" horiz-adv-x="600" 
d="M56 214h-43q7 42 21 76t45 61t74 27q16 0 32 -2.5t31.5 -7t25 -8t22.5 -9t14 -5.5l65 -25q78 -30 100 -30q38 0 63 31.5t38 74.5h43q-36 -166 -138 -166q-12 0 -27 2.5t-27 5.5t-30 9t-26.5 9t-27 10.5t-22.5 8.5l-51 20q-66 22 -84 22q-35 0 -60 -27t-38 -77z" />
    <glyph glyph-name="afii10051" unicode="&#x402;" horiz-adv-x="660" 
d="M385 367q-53 0 -86 -40t-33 -111v-216h-86v636h-171v76h465v-76h-208v-259q15 20 54.5 42.5t86.5 22.5q98 0 152.5 -60t54.5 -202q0 -150 -70.5 -232.5t-191.5 -82.5q-2 0 -6 0.5t-7 0.5v80q186 12 186 234q0 59 -11 97.5t-32 57.5t-43.5 25.5t-53.5 6.5z" />
    <glyph glyph-name="afii10052" unicode="&#x403;" horiz-adv-x="426" 
d="M152 0h-87v712h355v-76h-268v-636zM252 895h100l-108 -143h-61z" />
    <glyph glyph-name="quotesinglbase" unicode="&#x201a;" horiz-adv-x="240" 
d="M167 31q0 -33 -3 -57t-11.5 -51.5t-28.5 -45.5t-51 -25v47q29 13 37 36.5t8 64.5h-45v104h94v-73z" />
    <glyph glyph-name="afii10100" unicode="&#x453;" horiz-adv-x="361" 
d="M192 733h100l-108 -143h-61zM354 467h-211v-467h-83v535h294v-68z" />
    <glyph glyph-name="quotedblbase" unicode="&#x201e;" horiz-adv-x="407" 
d="M78 105h94v-85q0 -68 -18.5 -109.5t-75.5 -57.5v48q20 6 30.5 24.5t12.5 34t2 40.5h-45v105zM235 105h94v-85q0 -68 -18.5 -109.5t-75.5 -57.5v48q20 6 30.5 24.5t12.5 34t2 40.5h-45v105z" />
    <glyph glyph-name="ellipsis" unicode="&#x2026;" horiz-adv-x="1000" 
d="M122 0v112h90v-112h-90zM455 0v112h90v-112h-90zM788 0v112h90v-112h-90z" />
    <glyph glyph-name="dagger" unicode="&#x2020;" horiz-adv-x="482" 
d="M27 507h171v205h84v-205h171v-73h-171v-573h-84v573h-171v73z" />
    <glyph glyph-name="daggerdbl" unicode="&#x2021;" horiz-adv-x="482" 
d="M27 517h173v195h82v-195h171v-70h-171v-319h171v-68h-171v-199h-82v199h-173v68h173v319h-173v70z" />
    <glyph glyph-name="Euro" unicode="&#x20ac;" horiz-adv-x="480" 
d="M465 661l-32 -71q-60 52 -117 52q-40 0 -67.5 -16t-42 -46.5t-20.5 -59t-10 -69.5h227l-21 -60h-210l-1 -55h195l-21 -60h-173q1 -43 6.5 -75.5t19 -69t42 -57t71.5 -20.5q68 0 144 62v-87q-67 -43 -151 -43q-64 0 -108 23.5t-67.5 67t-34.5 90.5t-14 109h-61l21 60h39
l1 55h-62l21 60h44q24 260 229 260q76 0 153 -50z" />
    <glyph glyph-name="perthousand" unicode="&#x2030;" horiz-adv-x="1037" 
d="M485 717h63l-313 -730h-64zM43 520q0 42 4 70t16 58.5t39.5 46t70.5 15.5q34 0 58 -11t37 -27.5t20.5 -44t9 -50.5t1.5 -57t-2 -57.5t-9.5 -51t-21 -43.5t-39 -27.5t-61.5 -11.5q-34 0 -57.5 11.5t-36 28t-19.5 44.5t-8.5 50.5t-1.5 56.5zM114 520q0 -86 12 -109
q13 -26 44 -26q14 0 24.5 4.5t16.5 17t9.5 21.5t5 30t1.5 29v33q0 84 -10 106q-13 28 -46 28q-20 0 -32 -10t-17 -32t-6.5 -40.5t-1.5 -51.5zM426 183q0 42 4 70t16 58.5t39.5 46t70.5 15.5q34 0 58 -11t37 -27.5t20.5 -44t9 -50.5t1.5 -57t-2 -57.5t-9.5 -51t-21 -43.5
t-39 -27.5t-61.5 -11.5q-34 0 -57.5 11.5t-36 28t-19.5 44.5t-8.5 50.5t-1.5 56.5zM497 183q0 -86 12 -109q13 -26 44 -26q14 0 24.5 4.5t16.5 17t9.5 21.5t5 30t1.5 29v33q0 84 -10 106q-13 28 -46 28q-20 0 -32 -10t-17 -32t-6.5 -40.5t-1.5 -51.5zM737 183q0 42 4 70
t16 58.5t39.5 46t70.5 15.5q34 0 58 -11t37 -27.5t20.5 -44t9 -50.5t1.5 -57t-2 -57.5t-9.5 -51t-21 -43.5t-39 -27.5t-61.5 -11.5q-34 0 -57.5 11.5t-36 28t-19.5 44.5t-8.5 50.5t-1.5 56.5zM808 183q0 -86 12 -109q13 -26 44 -26q14 0 24.5 4.5t16.5 17t9.5 21.5t5 30
t1.5 29v33q0 84 -10 106q-13 28 -46 28q-20 0 -32 -10t-17 -32t-6.5 -40.5t-1.5 -51.5z" />
    <glyph glyph-name="afii10058" unicode="&#x409;" horiz-adv-x="823" 
d="M797 224q0 -114 -53.5 -169t-163.5 -55h-190v636h-173l-14 -407q-5 -129 -36 -186.5t-109 -57.5q-23 0 -56 7v70q20 -6 39 -6q29 0 43 13t24 61.5t13 147.5l13 434h343v-293h101q219 0 219 -195zM709 214q0 77 -37.5 106t-113.5 29h-81v-279h69q85 0 124 30t39 114z" />
    <glyph glyph-name="guilsinglleft" unicode="&#x2039;" horiz-adv-x="240" 
d="M187 96l-138 142v80l138 141v-88l-93 -92l93 -95v-88z" />
    <glyph glyph-name="afii10059" unicode="&#x40a;" horiz-adv-x="823" 
d="M390 349h-243v-349h-87v712h87v-293h243v293h87v-293h101q219 0 219 -195q0 -114 -53.5 -169t-163.5 -55h-190v349zM709 214q0 77 -37.5 106t-113.5 29h-81v-279h69q85 0 124 30t39 114z" />
    <glyph glyph-name="afii10061" unicode="&#x40c;" horiz-adv-x="500" 
d="M64 712h86v-305q0 -32 -2 -53q22 39 30 50l219 308h97l-214 -297l236 -415h-100l-193 342l-73 -99v-243h-86v712zM278 895h100l-108 -143h-61z" />
    <glyph glyph-name="afii10060" unicode="&#x40b;" horiz-adv-x="626" 
d="M586 0h-87v248q0 119 -114 119q-47 0 -119 -18v-349h-86v636h-171v76h465v-76h-208v-216q66 22 131 22q88 0 138.5 -49.5t50.5 -144.5v-248z" />
    <glyph glyph-name="afii10145" unicode="&#x40f;" horiz-adv-x="537" 
d="M310 0v-179h-83v179h-167v712h87v-636h243v636h87v-712h-167z" />
    <glyph glyph-name="afii10099" unicode="&#x452;" 
d="M330 102v122q0 73 -11 97q-19 37 -70 38q-42 0 -73 -30t-31 -72v-257h-83v467h-57v68h57v177h83v-177h194v-68h-194v-64q0 -24 -3 -51q45 77 136 77q135 0 135 -161v-167q0 -143 -48.5 -213.5t-175.5 -70.5q-15 0 -28 1v69q7 -1 25 -1q80 0 112 54t32 162z" />
    <glyph glyph-name="quoteleft" unicode="&#x2018;" horiz-adv-x="240" 
d="M167 478h-94v73q0 33 3 57t11.5 51.5t28.5 45.5t51 25v-47q-29 -13 -37 -36.5t-8 -64.5h45v-104z" />
    <glyph glyph-name="quoteright" unicode="&#x2019;" horiz-adv-x="240" 
d="M167 639q0 -33 -3 -57t-11.5 -51.5t-28.5 -45.5t-51 -25v47q29 13 37 36.5t8 64.5h-45v104h94v-73z" />
    <glyph glyph-name="quotedblleft" unicode="&#x201c;" horiz-adv-x="407" 
d="M328 478h-94v73q0 33 3 57t11.5 51.5t28.5 45.5t51 25v-47q-29 -13 -37 -36.5t-8 -64.5h45v-104zM171 478h-94v73q0 33 3 57t11.5 51.5t28.5 45.5t51 25v-47q-29 -13 -37 -36.5t-8 -64.5h45v-104z" />
    <glyph glyph-name="quotedblright" unicode="&#x201d;" horiz-adv-x="407" 
d="M329 639q0 -33 -3 -57t-11.5 -51.5t-28.5 -45.5t-51 -25v47q29 13 37 36.5t8 64.5h-45v104h94v-73zM172 639q0 -33 -3 -57t-11.5 -51.5t-28.5 -45.5t-51 -25v47q29 13 37 36.5t8 64.5h-45v104h94v-73z" />
    <glyph glyph-name="bullet" unicode="&#x2022;" horiz-adv-x="500" 
d="M250 539q75 0 128 -53t53 -128t-53 -128t-128 -53t-128 53t-53 128t53 128t128 53z" />
    <glyph glyph-name="endash" unicode="&#x2013;" horiz-adv-x="500" 
d="M0 321h500v-73h-500v73z" />
    <glyph glyph-name="emdash" unicode="&#x2014;" horiz-adv-x="1000" 
d="M0 321h1000v-73h-1000v73z" />
    <glyph glyph-name="trademark" unicode="&#x2122;" horiz-adv-x="990" 
d="M243 356v314h-122v42h293v-42h-122v-314h-49zM478 356v356h72l108 -283l107 283h70v-356h-43v309l-116 -309h-39l-116 309v-309h-43z" />
    <glyph glyph-name="afii10106" unicode="&#x459;" horiz-adv-x="691" 
d="M663 170q0 -170 -174 -170h-165v467h-135l-7 -254q-2 -74 -13 -121.5t-30.5 -67.5t-36.5 -26t-43 -6q-34 0 -58 8v66q15 -5 32 -5q22 0 33.5 6t21.5 38.5t12 98.5l9 331h298v-215h82q174 0 174 -150zM578 163q0 53 -26.5 72t-82.5 19h-62v-188h53q63 0 90.5 19t27.5 78z
" />
    <glyph glyph-name="guilsinglright" unicode="&#x203a;" horiz-adv-x="240" 
d="M191 238l-138 -142v88l93 95l-93 92v88l138 -141v-80z" />
    <glyph glyph-name="afii10107" unicode="&#x45a;" horiz-adv-x="691" 
d="M324 254h-185v-254h-83v535h83v-215h185v215h83v-215h82q174 0 174 -150q0 -170 -174 -170h-165v254zM469 254h-62v-188h53q63 0 90.5 19t27.5 78q0 53 -26.5 72t-82.5 19z" />
    <glyph glyph-name="afii10109" unicode="&#x45c;" horiz-adv-x="444" 
d="M242 733h100l-108 -143h-61zM138 262q13 23 65 99l124 174h98l-160 -215l184 -320h-98l-141 250l-69 -95v-155h-82v535h82v-204q0 -36 -3 -69z" />
    <glyph glyph-name="afii10108" unicode="&#x45b;" 
d="M5 467v68h57v177h83v-177h194v-68h-194v-64q0 -24 -3 -51q45 77 136 77q135 0 135 -161v-268h-83v224q0 73 -11 97q-19 37 -70 38q-42 0 -73 -30t-31 -72v-257h-83v467h-57z" />
    <glyph glyph-name="afii10193" unicode="&#x45f;" 
d="M272 0v-143h-80v143h-136v535h83v-467h185v467h83v-535h-135z" />
    <glyph glyph-name="uni00A0" unicode="&#xa0;" horiz-adv-x="240" 
 />
    <glyph glyph-name="afii10062" unicode="&#x40e;" horiz-adv-x="474" 
d="M482 712l-210 -575q-27 -74 -61 -107.5t-105 -33.5q-17 0 -45 4v69q24 -4 44 -4q58 0 76 53l24 71l-208 523h97l97 -247q42 -108 58 -174h3q6 39 57 188l81 233h92zM380 893q-2 -63 -37 -98.5t-94 -35.5t-94 35.5t-38 98.5h54q13 -69 78 -69t77 69h54z" />
    <glyph glyph-name="afii10110" unicode="&#x45e;" horiz-adv-x="406" 
d="M79 725h49q13 -68 75 -68q31 0 51 18t25 50h50q-4 -59 -37.5 -93t-88.5 -34q-54 0 -88 34.5t-36 92.5zM13 535h90l85 -331q20 -83 24 -123h1q4 53 17 111l78 343h89q-129 -486 -138 -517l-17 -58q-11 -38 -20.5 -59.5t-26 -42.5t-42 -30t-62.5 -9q-17 0 -51 2v69
q30 -2 44 -2q52 0 71 53l16 44z" />
    <glyph glyph-name="afii10057" unicode="&#x408;" horiz-adv-x="426" 
d="M21 209h85v-11q0 -24 1 -39t5.5 -36.5t12.5 -34t24.5 -22t40.5 -9.5q22 0 38 5.5t25.5 19t15 24.5t7.5 33t2.5 32.5t0.5 35.5v505h87v-493q0 -56 -6 -93t-24 -71.5t-55.5 -51t-95.5 -16.5q-94 0 -129 55t-35 156v11z" />
    <glyph glyph-name="currency" unicode="&#xa4;" horiz-adv-x="480" 
d="M111 194l-65 -65l-34 36l64 64q-44 59 -44 129q0 74 46 130l-66 64l35 35l65 -64q59 44 128 44q72 0 130 -45l64 65l36 -35l-66 -65q45 -56 45 -129q0 -70 -44 -129l65 -64l-36 -35l-64 64q-58 -45 -129 -45q-72 0 -130 45zM395 358q0 64 -45 109.5t-109 45.5
q-65 0 -110 -45.5t-45 -109.5t45 -109.5t109 -45.5t109.5 45.5t45.5 109.5z" />
    <glyph glyph-name="afii10050" unicode="&#x490;" horiz-adv-x="426" 
d="M420 871v-235h-268v-636h-87v712h272v159h83z" />
    <glyph glyph-name="brokenbar" unicode="&#xa6;" horiz-adv-x="222" 
d="M81 -89v282h60v-282h-60zM81 379v282h60v-282h-60z" />
    <glyph glyph-name="section" unicode="&#xa7;" horiz-adv-x="482" 
d="M66 20h85v-3q0 -46 22.5 -74t69.5 -28q40 0 65 23t25 60q0 30 -18.5 53.5t-65.5 52.5l-112 70q-55 35 -79.5 68.5t-24.5 76.5q0 44 23 77.5t74 62.5q-65 46 -65 116q0 67 47.5 106.5t127.5 39.5q73 0 121 -38t48 -109h-85q-1 39 -25 60.5t-65 21.5q-37 0 -59.5 -20
t-22.5 -53q0 -27 16.5 -46.5t62.5 -47.5l100 -60q57 -34 87 -70t30 -92q0 -84 -85 -142q30 -30 43.5 -56.5t13.5 -65.5q0 -71 -47.5 -113.5t-126.5 -42.5q-86 0 -133 44t-47 125v4zM310 160q59 38 59 93q0 40 -35 72q-18 16 -101 68l-51 32q-69 -45 -69 -92q0 -44 70 -89
l66 -42q44 -28 61 -42z" />
    <glyph glyph-name="afii10023" unicode="&#x401;" 
d="M61 712h367v-76h-281v-227h265v-75h-265v-258h292v-76h-378v712zM363 778h-81v98h81v-98zM201 778h-80v98h80v-98z" />
    <glyph glyph-name="copyright" unicode="&#xa9;" horiz-adv-x="800" 
d="M401 720q151 0 258.5 -107t107.5 -259t-107 -259.5t-259 -107.5t-259.5 107.5t-107.5 259.5t107.5 259t259.5 107zM401 682q-136 0 -232 -96t-96 -232q0 -137 96 -233t232 -96t232 96.5t96 232.5t-96 232t-232 96zM579 280q-8 -62 -56.5 -100t-111.5 -38q-88 0 -143.5 62
t-55.5 152q0 88 52.5 151t138.5 63q68 0 117 -40t56 -106h-51q-10 46 -41 72.5t-78 26.5q-64 0 -99 -49t-35 -116q0 -70 36 -120t104 -50q44 0 75 24.5t40 67.5h52z" />
    <glyph glyph-name="afii10053" unicode="&#x404;" horiz-adv-x="519" 
d="M361 334h-228q0 -31 1.5 -55.5t5.5 -60t13.5 -61.5t24.5 -50.5t40 -37.5t57 -13q117 0 126 167h87q-5 -110 -56.5 -174t-158.5 -64q-56 0 -98 21t-67 54t-40 82t-20 97t-5 107q0 45 1.5 79t7 75.5t15 71.5t26.5 60.5t40.5 49.5t58.5 30.5t79 11.5q96 0 149.5 -55
t58.5 -154h-88q-10 138 -120 138q-35 0 -60.5 -15t-39.5 -37.5t-23 -56.5t-11.5 -64.5t-3.5 -70.5h228v-75z" />
    <glyph glyph-name="guillemotleft" unicode="&#xab;" horiz-adv-x="389" 
d="M185 96l-138 142v80l138 141v-88l-93 -92l93 -95v-88zM336 96l-138 142v80l138 141v-88l-93 -92l93 -95v-88z" />
    <glyph glyph-name="logicalnot" unicode="&#xac;" horiz-adv-x="600" 
d="M50 370v60h500v-260h-60v200h-440z" />
    <glyph glyph-name="uni00AD" unicode="&#xad;" horiz-adv-x="352" 
d="M55 324h242v-78h-242v78z" />
    <glyph glyph-name="registered" unicode="&#xae;" horiz-adv-x="400" 
d="M201 721q76 0 129.5 -54t53.5 -130t-53.5 -129.5t-129.5 -53.5t-129.5 53.5t-53.5 129.5t53.5 130t129.5 54zM201 692q-64 0 -109.5 -45.5t-45.5 -109.5q0 -63 45.5 -109t109.5 -46t109 45.5t45 109.5q0 65 -45 110t-109 45zM129 632h72q83 0 83 -54q0 -33 -35 -46
q20 -8 26 -22.5t6.5 -34.5t5.5 -31h-36q-5 12 -4.5 34t-9.5 31t-44 9h-29v-74h-35v188zM164 546h36q49 0 49 30q0 28 -48 28h-37v-58z" />
    <glyph glyph-name="afii10056" unicode="&#x407;" horiz-adv-x="204" 
d="M58 712h88v-712h-88v712zM223 778h-81v98h81v-98zM61 778h-80v98h80v-98z" />
    <glyph glyph-name="degree" unicode="&#xb0;" horiz-adv-x="400" 
d="M199 712q59 0 101 -42t42 -101q0 -60 -41.5 -102t-100.5 -42t-101 42t-42 102q0 59 41.5 101t100.5 42zM200 670q-42 0 -71.5 -29.5t-29.5 -71.5t29.5 -72t71.5 -30q41 0 71 30t30 72t-30 71.5t-71 29.5z" />
    <glyph glyph-name="plusminus" unicode="&#xb1;" horiz-adv-x="600" 
d="M270 99v170h-220v60h220v171h60v-171h220v-60h-220v-170h-60zM50 0v60h500v-60h-500z" />
    <glyph glyph-name="afii10055" unicode="&#x406;" horiz-adv-x="204" 
d="M58 712h88v-712h-88v712z" />
    <glyph glyph-name="afii10103" unicode="&#x456;" horiz-adv-x="204" 
d="M60 535h83v-535h-83v535zM60 712h83v-98h-83v98z" />
    <glyph glyph-name="afii10098" unicode="&#x491;" horiz-adv-x="356" 
d="M354 467h-211v-467h-83v535h214v136h80v-204z" />
    <glyph glyph-name="mu" unicode="&#xb5;" 
d="M406 0h-77l2 64q-29 -43 -49 -57.5t-62 -14.5q-28 0 -51.5 14.5t-31.5 32.5q1 -16 1 -47v-171h-83v714h85v-366q0 -51 15.5 -80.5t62.5 -29.5q65 0 96 58q10 17 10 50v368h82v-535z" />
    <glyph glyph-name="paragraph" unicode="&#xb6;" horiz-adv-x="556" 
d="M527 664h-55v-838h-54v838h-128v-838h-54v435h-1q-92 0 -150.5 61.5t-58.5 157.5q0 111 72.5 171.5t185.5 60.5h243v-48z" />
    <glyph glyph-name="periodcentered" unicode="&#xb7;" horiz-adv-x="240" 
d="M74 353h94v-105h-94v105z" />
    <glyph glyph-name="afii10071" unicode="&#x451;" horiz-adv-x="444" 
d="M343 614h-81v98h81v-98zM181 614h-80v98h80v-98zM125 259v-7q0 -108 24 -154.5t78 -46.5q87 0 96 124h80q-7 -91 -52 -140t-129 -49q-94 0 -138.5 68.5t-44.5 211.5t47 212.5t144 69.5q93 0 135.5 -65t42.5 -207v-17h-283zM127 321h194q0 31 -2.5 54t-11 51t-28.5 43
t-51 15q-101 0 -101 -163z" />
    <glyph glyph-name="afii61352" unicode="&#x2116;" horiz-adv-x="854" 
d="M60 698h128l141 -372q43 -113 78 -260h4q-9 81 -9 191v441h83v-698h-130l-145 400q-62 173 -72 232h-5q11 -73 11 -185v-447h-84v698zM554 281q0 173 131 173q65 0 96.5 -41t31.5 -128q0 -169 -133 -169q-64 0 -95 40.5t-31 124.5zM627 283q0 -116 55 -116q57 0 57 117
q0 70 -15 94.5t-41 24.5q-15 0 -26 -6.5t-20.5 -35t-9.5 -78.5zM554 76h259v-76h-259v76z" />
    <glyph glyph-name="afii10101" unicode="&#x454;" horiz-adv-x="426" 
d="M396 173q-3 -87 -46 -136.5t-130 -49.5q-185 0 -185 281q0 49 3.5 86t15.5 75t32 62.5t55.5 40t83.5 15.5q79 0 124 -48t47 -122h-84q0 52 -24 78.5t-65 26.5q-51 0 -75 -38.5t-28 -130.5h165v-67h-166q3 -195 104 -195q41 0 65 31.5t27 90.5h81z" />
    <glyph glyph-name="guillemotright" unicode="&#xbb;" horiz-adv-x="389" 
d="M342 238l-138 -142v88l93 95l-93 92v88l138 -141v-80zM191 238l-138 -142v88l93 95l-93 92v88l138 -141v-80z" />
    <glyph glyph-name="afii10105" unicode="&#x458;" horiz-adv-x="204" 
d="M68 535h83v-564q0 -81 -29.5 -117.5t-110.5 -36.5q-15 0 -28 1v69q7 -1 25 -1q37 0 48.5 20.5t11.5 67.5v561zM68 712h83v-98h-83v98z" />
    <glyph glyph-name="afii10054" unicode="&#x405;" horiz-adv-x="500" 
d="M31 223h88v-13q0 -154 125 -154q62 0 96 33t34 94q0 50 -24.5 79.5t-79.5 48.5l-70 24q-83 29 -120.5 74.5t-37.5 119.5q0 92 54 143t152 51q95 0 145.5 -48.5t50.5 -140.5v-7h-87q0 62 -25 94t-87 32q-56 0 -86 -29.5t-30 -84.5q0 -50 28 -81t92 -53l68 -23
q77 -26 112.5 -69t35.5 -121q0 -98 -58 -151.5t-165 -53.5q-110 0 -160.5 55.5t-50.5 167.5v13z" />
    <glyph glyph-name="afii10102" unicode="&#x455;" horiz-adv-x="407" 
d="M27 173h78v-6q0 -61 23 -89t73 -28q45 0 70 23t25 64q0 65 -72 90l-65 23q-68 24 -95.5 57t-27.5 92q0 70 43.5 108t123.5 38q81 0 120 -39.5t39 -122.5v-6h-79v5q0 53 -19 76.5t-63 23.5q-41 0 -63.5 -20t-22.5 -56t21.5 -55.5t62.5 -32.5q91 -30 124 -52
q54 -36 54 -117q0 -82 -49.5 -122.5t-132.5 -40.5q-91 0 -129.5 45.5t-38.5 137.5v4z" />
    <glyph glyph-name="afii10104" unicode="&#x457;" horiz-adv-x="204" 
d="M60 535h83v-535h-83v535zM-19 712h80v-98h-80v98zM142 712h81v-98h-81v98z" />
    <glyph glyph-name="afii10017" unicode="&#x410;" horiz-adv-x="500" 
d="M197 712h115l197 -712h-93l-52 195h-228l-54 -195h-91zM253 656q-5 -36 -16 -77l-83 -312h193l-78 311q-7 27 -15 78h-1z" />
    <glyph glyph-name="afii10018" unicode="&#x411;" horiz-adv-x="519" 
d="M480 221q0 -114 -53 -167.5t-164 -53.5h-203v712h379v-74h-293v-223h115q219 0 219 -194zM392 211q0 77 -37.5 105.5t-113.5 28.5h-95v-275h83q86 0 124.5 28.5t38.5 112.5z" />
    <glyph glyph-name="afii10019" unicode="&#x412;" horiz-adv-x="519" 
d="M58 712h194q100 0 152.5 -41t52.5 -141q0 -56 -27.5 -96t-76.5 -56q62 -14 95 -59t33 -115q0 -100 -59 -152t-164 -52h-200v712zM145 642v-236h90q69 0 102 27t33 93q0 69 -36 92.5t-107 23.5h-82zM145 340v-271h66q48 0 84 4q47 7 72.5 41.5t25.5 90.5q0 70 -47 108
q-20 16 -43.5 21.5t-77.5 5.5h-80z" />
    <glyph glyph-name="afii10020" unicode="&#x413;" horiz-adv-x="426" 
d="M152 0h-87v712h355v-76h-268v-636z" />
    <glyph glyph-name="afii10021" unicode="&#x414;" horiz-adv-x="556" 
d="M548 -179h-83v179h-382v-179h-83v255h52q103 182 103 492v144h322v-636h71v-255zM390 76v560h-151v-109q0 -287 -94 -451h245z" />
    <glyph glyph-name="afii10022" unicode="&#x415;" 
d="M61 712h367v-76h-281v-227h265v-75h-265v-258h292v-76h-378v712z" />
    <glyph glyph-name="afii10024" unicode="&#x416;" horiz-adv-x="762" 
d="M770 0h-100l-182 340l-64 -96v-244h-86v244l-64 96l-182 -340h-100l226 416l-200 296h97l157 -242q51 -77 69 -114q-3 30 -3 84v272h86v-272q0 -54 -3 -84q18 37 69 114l157 242h97l-200 -296z" />
    <glyph glyph-name="afii10025" unicode="&#x417;" horiz-adv-x="500" 
d="M119 211q0 -154 125 -154q63 0 96.5 35.5t33.5 102.5q0 78 -36 111.5t-114 33.5l-39 -2v70q19 -2 29 -2q71 0 105 28.5t34 102.5q0 116 -108 116q-62 0 -87 -32t-25 -94h-87v7q0 91 53.5 140t153.5 49q91 0 139 -49t48 -133q0 -64 -31.5 -109.5t-83.5 -55.5
q66 -8 101.5 -54t35.5 -121q0 -102 -55.5 -157.5t-164.5 -55.5q-110 0 -160.5 55.5t-50.5 167.5h88z" />
    <glyph glyph-name="afii10026" unicode="&#x418;" horiz-adv-x="550" 
d="M490 712v-712h-87v417q0 132 10 199h-3q-5 -20 -14.5 -47.5t-17.5 -48t-25 -60.5t-25 -60l-161 -400h-107v712h87v-415q0 -110 -9 -191h3q22 90 77 220l165 386h107z" />
    <glyph glyph-name="afii10027" unicode="&#x419;" horiz-adv-x="550" 
d="M409 893q-2 -63 -37 -98.5t-94 -35.5t-94 35.5t-38 98.5h54q13 -69 78 -69t77 69h54zM490 0h-87v417q0 132 10 199h-3q-5 -20 -14.5 -47.5t-17.5 -48t-25 -60.5t-25 -60l-161 -400h-107v712h87v-415q0 -110 -9 -191h3q22 90 77 220l165 386h107v-712z" />
    <glyph glyph-name="afii10028" unicode="&#x41a;" horiz-adv-x="500" 
d="M64 712h86v-305q0 -32 -2 -53q22 39 30 50l219 308h97l-214 -297l236 -415h-100l-193 342l-73 -99v-243h-86v712z" />
    <glyph glyph-name="afii10029" unicode="&#x41b;" horiz-adv-x="537" 
d="M477 0h-87v636h-173l-14 -407q-5 -129 -36 -186.5t-109 -57.5q-23 0 -56 7v70q20 -6 39 -6q29 0 43 13t24 61.5t13 147.5l13 434h343v-712z" />
    <glyph glyph-name="afii10030" unicode="&#x41c;" horiz-adv-x="704" 
d="M66 712h140l87 -331q50 -193 60 -294h2q10 107 45 242l96 383h142v-712h-84v499q0 49 7 158h-6q-9 -49 -24 -109l-139 -548h-81l-135 521q-6 24 -12.5 53.5t-11 53.5t-5.5 29h-6q7 -114 7 -199v-458h-82v712z" />
    <glyph glyph-name="afii10031" unicode="&#x41d;" horiz-adv-x="537" 
d="M147 419h243v293h87v-712h-87v343h-243v-343h-87v712h87v-293z" />
    <glyph glyph-name="afii10032" unicode="&#x41e;" horiz-adv-x="556" 
d="M49 357q0 190 56 278.5t176 88.5q117 0 171 -84.5t54 -266.5q0 -42 -1.5 -74t-6.5 -74.5t-14 -73.5t-26.5 -64t-41.5 -53.5t-60.5 -34t-81.5 -13.5q-59 0 -102 24.5t-66 60t-36.5 89.5t-17 97.5t-3.5 99.5zM138 355q0 -159 32 -229.5t105 -70.5q75 0 108.5 70t33.5 227
q0 164 -31.5 232.5t-106.5 68.5q-29 0 -52 -11.5t-37.5 -27.5t-25 -43.5t-15.5 -49.5t-7.5 -56.5t-3 -52.5t-0.5 -49v-8z" />
    <glyph glyph-name="afii10033" unicode="&#x41f;" horiz-adv-x="537" 
d="M477 712v-712h-87v636h-243v-636h-87v712h417z" />
    <glyph glyph-name="afii10034" unicode="&#x420;" horiz-adv-x="481" 
d="M56 712h186q212 0 212 -204q0 -207 -214 -207h-98v-301h-86v712zM142 642v-271h78q74 0 110 30t36 107q0 79 -39.5 106.5t-118.5 27.5h-66z" />
    <glyph glyph-name="afii10035" unicode="&#x421;" horiz-adv-x="519" 
d="M398 244h87q-9 -259 -216 -259q-60 0 -103 23t-66 56.5t-36.5 86t-16.5 95.5t-3 100q0 60 3 104.5t16.5 99.5t37 90t67 59.5t104.5 24.5q100 0 153 -56.5t55 -165.5h-87q-6 151 -121 151q-29 0 -51.5 -12t-36.5 -28.5t-24.5 -45t-15 -51t-7 -58t-3 -53.5t-0.5 -50v-10
v-47.5t2.5 -51t7 -56.5t14.5 -49.5t24.5 -45t37 -27.5t51.5 -12q121 0 127 188z" />
    <glyph glyph-name="afii10036" unicode="&#x422;" 
d="M9 712h445v-76h-178v-636h-86v636h-181v76z" />
    <glyph glyph-name="afii10037" unicode="&#x423;" horiz-adv-x="474" 
d="M482 712l-210 -575q-27 -74 -61 -107.5t-105 -33.5q-17 0 -45 4v69q24 -4 44 -4q58 0 76 53l24 71l-208 523h97l97 -247q42 -108 58 -174h3q6 39 57 188l81 233h92z" />
    <glyph glyph-name="afii10038" unicode="&#x424;" horiz-adv-x="722" 
d="M677 356q0 -134 -75.5 -209t-180.5 -75h-16v-81h-88v81h-16q-105 0 -180.5 75t-75.5 209q0 139 73 213.5t184 74.5h15v74h88v-74h15q111 0 184 -74.5t73 -213.5zM589 359q0 107 -50 161t-123 54h-11v-432h11q62 0 117.5 57.5t55.5 159.5zM317 142v432h-11q-73 0 -123 -54
t-50 -161q0 -102 55.5 -159.5t117.5 -57.5h11z" />
    <glyph glyph-name="afii10039" unicode="&#x425;" horiz-adv-x="481" 
d="M16 712h97l92 -191q29 -59 38 -91h1q11 43 37 94l94 188h93l-178 -350l189 -362h-97l-116 231q-20 41 -26 69h-1q-9 -33 -28 -72l-115 -228h-94l190 362z" />
    <glyph glyph-name="afii10040" unicode="&#x426;" horiz-adv-x="556" 
d="M60 0v712h87v-636h243v636h87v-636h71v-255h-83v179h-405z" />
    <glyph glyph-name="afii10041" unicode="&#x427;" horiz-adv-x="519" 
d="M370 311q-77 -22 -131 -22q-88 0 -138.5 49.5t-50.5 144.5v229h87v-229q0 -119 114 -119q47 0 119 18v330h87v-712h-87v311z" />
    <glyph glyph-name="afii10042" unicode="&#x428;" horiz-adv-x="800" 
d="M60 0v712h87v-636h210v636h87v-636h210v636h87v-712h-681z" />
    <glyph glyph-name="afii10043" unicode="&#x429;" horiz-adv-x="800" 
d="M60 0v712h87v-636h210v636h87v-636h210v636h87v-636h71v-255h-83v179h-669z" />
    <glyph glyph-name="afii10044" unicode="&#x42a;" horiz-adv-x="611" 
d="M497 214q0 77 -38 107t-113 30h-81v-281h69q85 0 124 30t39 114zM3 636v76h262v-291h101q219 0 219 -197q0 -114 -53.5 -169t-163.5 -55h-189v636h-176z" />
    <glyph glyph-name="afii10045" unicode="&#x42b;" horiz-adv-x="671" 
d="M456 224q0 -114 -53.5 -169t-163.5 -55h-179v712h86v-291h91q219 0 219 -197zM368 214q0 77 -38 107t-113 30h-71v-281h59q85 0 124 30t39 114zM524 712h87v-712h-87v712z" />
    <glyph glyph-name="afii10046" unicode="&#x42c;" horiz-adv-x="489" 
d="M462 224q0 -114 -53.5 -169t-163.5 -55h-189v712h86v-291h101q219 0 219 -197zM374 214q0 77 -38 107t-113 30h-81v-281h69q85 0 124 30t39 114z" />
    <glyph glyph-name="afii10047" unicode="&#x42d;" horiz-adv-x="519" 
d="M484 346q0 -59 -5 -107t-20 -97t-40 -82t-67 -54t-98 -21q-107 0 -158.5 64t-56.5 174h87q9 -167 126 -167q32 0 57 13t40 37.5t24.5 50.5t13.5 61.5t5.5 60t1.5 55.5h-228v75h228q-1 40 -3.5 70.5t-11.5 64.5t-23 56.5t-39.5 37.5t-60.5 15q-110 0 -120 -138h-88
q5 99 58.5 154t149.5 55q44 0 79 -11.5t58.5 -30.5t40.5 -49.5t26.5 -60.5t15 -71.5t7 -75.5t1.5 -79z" />
    <glyph glyph-name="afii10048" unicode="&#x42e;" horiz-adv-x="750" 
d="M245 413q8 161 64 236t167 75q117 0 171 -84.5t54 -266.5q0 -42 -1.5 -74t-6.5 -74.5t-14 -73.5t-26.5 -64t-41.5 -53.5t-60.5 -34t-81.5 -13.5q-57 0 -99 22.5t-65 56t-37.5 83.5t-18.5 93t-5 96h-97v-337h-87v712h87v-299h98zM333 355q0 -159 32 -229.5t105 -70.5
q75 0 108.5 70t33.5 227q0 164 -31.5 232.5t-106.5 68.5q-29 0 -52 -11.5t-37.5 -27.5t-25 -43.5t-15.5 -49.5t-7.5 -56.5t-3 -52.5t-0.5 -49v-8z" />
    <glyph glyph-name="afii10049" unicode="&#x42f;" horiz-adv-x="519" 
d="M285 301l-161 -301h-100l168 310q-69 19 -107 71t-38 133q0 99 60.5 148.5t161.5 49.5h190v-712h-86v301h-88zM373 371v271h-80q-79 0 -118 -25.5t-39 -102.5q0 -76 37.5 -109.5t110.5 -33.5h89z" />
    <glyph glyph-name="afii10065" unicode="&#x430;" horiz-adv-x="444" 
d="M46 376q0 90 41 132t131 42q84 0 127 -39q21 -18 29.5 -44t8.5 -72v-277v-9.5v-10.5t0.5 -9.5t2 -9.5t3.5 -7t5.5 -7t8.5 -3.5t12 -1.5q5 0 16 3v-59q-21 -7 -46 -7q-75 0 -79 68q-45 -74 -137 -74q-67 0 -102.5 39t-35.5 111q0 43 10 72t35 47.5t47.5 27.5t66.5 22
q74 22 92 33q20 13 20 58q0 87 -86 87q-52 0 -72 -29t-20 -83h-78zM304 295q-8 -9 -22.5 -17t-25 -11.5t-31 -10t-24.5 -7.5q-46 -14 -65.5 -36.5t-19.5 -68.5q0 -88 77 -88q47 0 78 32t31 84v78q0 33 2 45z" />
    <glyph glyph-name="afii10066" unicode="&#x431;" horiz-adv-x="451" 
d="M402 736q-2 -41 -25 -65.5t-47.5 -31t-64.5 -12.5t-55 -11q-53 -18 -82 -64.5t-36 -129.5h2q21 56 62.5 84.5t90.5 28.5q85 0 128.5 -66t43.5 -209q0 -145 -47 -210t-149 -65q-41 0 -72.5 12.5t-51 37t-32 51.5t-18 65.5t-7.5 68t-2 69.5q0 58 2 99t10.5 96t24 91.5
t45.5 69t72 45.5q22 7 59.5 12.5t57 12t22.5 21.5h69zM334 263q0 113 -24 161t-77 48q-56 0 -82 -50t-26 -166q0 -104 23.5 -156t80.5 -52q54 0 79.5 50t25.5 165z" />
    <glyph glyph-name="afii10067" unicode="&#x432;" horiz-adv-x="444" 
d="M55 0v535h181q75 0 114.5 -31t39.5 -106q0 -42 -20.5 -72t-57.5 -42q96 -21 96 -131q0 -75 -44 -114t-123 -39h-186zM204 474h-67v-165h73q50 0 73 18.5t23 65.5q0 48 -25 64.5t-77 16.5zM290 232q-24 19 -88 19h-65v-190h55q42 0 62 3q33 4 51 28t18 64q0 50 -33 76z
" />
    <glyph glyph-name="afii10068" unicode="&#x433;" horiz-adv-x="361" 
d="M354 467h-211v-467h-83v535h294v-68z" />
    <glyph glyph-name="afii10069" unicode="&#x434;" horiz-adv-x="485" 
d="M475 -143h-80v143h-309v-143h-80v211h55q64 111 64 341v126h289v-467h61v-211zM331 68v399h-127v-89q0 -75 -15 -166.5t-44 -143.5h186z" />
    <glyph glyph-name="afii10070" unicode="&#x435;" horiz-adv-x="444" 
d="M125 259v-7q0 -108 24 -154.5t78 -46.5q87 0 96 124h80q-7 -91 -52 -140t-129 -49q-94 0 -138.5 68.5t-44.5 211.5t47 212.5t144 69.5q93 0 135.5 -65t42.5 -207v-17h-283zM127 321h194q0 31 -2.5 54t-11 51t-28.5 43t-51 15q-101 0 -101 -163z" />
    <glyph glyph-name="afii10072" unicode="&#x436;" horiz-adv-x="647" 
d="M651 0h-93l-134 252l-60 -85v-167h-81v167l-61 86l-133 -253h-93l176 319l-150 216h92l102 -153q58 -88 70 -115q-3 51 -3 85v183h81v-183q0 -34 -3 -85q12 27 70 115l102 153h92l-150 -216z" />
    <glyph glyph-name="afii10073" unicode="&#x437;" horiz-adv-x="410" 
d="M377 152q0 -78 -44 -121t-130 -43q-92 0 -135 44t-43 134h80q0 -115 94 -115q45 0 70 24.5t25 72.5q0 55 -25.5 78.5t-82.5 23.5l-36 -2v65q21 -2 28 -2q52 0 77 20t25 71q0 81 -78 81q-46 0 -65 -23t-19 -71h-80v11q0 72 45 109t125 37q72 0 113 -38.5t41 -102.5
q0 -47 -26.5 -80.5t-67.5 -41.5q51 -7 80 -41t29 -90z" />
    <glyph glyph-name="afii10074" unicode="&#x438;" horiz-adv-x="474" 
d="M136 109q19 65 54 139l132 287h96v-535h-83v312q0 21 6 123h-3q-8 -40 -39 -109l-147 -326h-96v535h83v-311q0 -68 -6 -115h3z" />
    <glyph glyph-name="afii10075" unicode="&#x439;" horiz-adv-x="474" 
d="M112 725h49q13 -68 75 -68q31 0 51 18t25 50h50q-4 -59 -37.5 -93t-88.5 -34q-54 0 -88 34.5t-36 92.5zM136 109q19 65 54 139l132 287h96v-535h-83v312q0 21 6 123h-3q-8 -40 -39 -109l-147 -326h-96v535h83v-311q0 -68 -6 -115h3z" />
    <glyph glyph-name="afii10076" unicode="&#x43a;" horiz-adv-x="444" 
d="M138 262q13 23 65 99l124 174h98l-160 -215l184 -320h-98l-141 250l-69 -95v-155h-82v535h82v-204q0 -36 -3 -69z" />
    <glyph glyph-name="afii10077" unicode="&#x43b;" 
d="M405 0h-83v467h-133l-7 -254q-2 -74 -13 -121.5t-30.5 -67.5t-36.5 -26t-43 -6q-34 0 -58 8v66q15 -5 32 -5q22 0 33.5 6t21.5 38.5t12 98.5l9 331h296v-535z" />
    <glyph glyph-name="afii10078" unicode="&#x43c;" horiz-adv-x="589" 
d="M451 0v364q0 41 4 101q-3 -11 -11 -46.5t-11 -48.5l-100 -370h-77l-100 364q-17 60 -23 102q6 -84 6 -123v-343h-81v535h123l71 -247q29 -102 44 -198q11 74 35 159l78 286h122v-535h-80z" />
    <glyph glyph-name="afii10079" unicode="&#x43d;" 
d="M324 253h-185v-253h-83v535h83v-215h185v215h83v-535h-83v253z" />
    <glyph glyph-name="afii10080" unicode="&#x43e;" horiz-adv-x="444" 
d="M32 266q0 137 44.5 209t150.5 72q97 0 141 -66.5t44 -213.5q0 -148 -46.5 -214t-150.5 -66q-95 0 -139 67t-44 212zM117 263q0 -106 22 -158.5t82 -52.5q56 0 81 51t25 167q0 115 -23.5 163.5t-78.5 48.5q-58 0 -83 -51t-25 -168z" />
    <glyph glyph-name="afii10081" unicode="&#x43f;" 
d="M322 467h-181v-467h-83v535h347v-535h-83v467z" />
    <glyph glyph-name="afii10082" unicode="&#x440;" 
d="M133 535v-26q0 -30 -2 -44q32 82 127 82q43 0 75 -17.5t49 -43.5t27 -65t12.5 -71t2.5 -72q0 -290 -172 -290q-79 0 -115 71q1 -16 1 -47v-191h-83v714h78zM134 275q0 -27 0.5 -42t3 -46t9 -49.5t17.5 -39.5t29.5 -31.5t43.5 -10.5q24 0 42.5 10.5t29.5 31t17.5 40
t9.5 48.5t3.5 45.5t0.5 41.5q0 111 -23 158.5t-76 47.5q-30 0 -51.5 -15t-32 -34.5t-16 -51.5t-6.5 -52.5t-1 -50.5z" />
    <glyph glyph-name="afii10083" unicode="&#x441;" horiz-adv-x="426" 
d="M315 187h81q-2 -93 -45.5 -146.5t-133.5 -53.5q-57 0 -95 24.5t-55.5 68.5t-24 87.5t-6.5 100.5q0 56 7 100t25.5 88.5t58.5 69t99 24.5q83 0 126.5 -51t43.5 -129h-84v5q0 54 -23 81.5t-65 27.5q-55 0 -79 -50.5t-24 -163.5q0 -27 0.5 -42t3 -45.5t9 -49t17.5 -39.5
t29.5 -31t43.5 -10q88 0 91 134z" />
    <glyph glyph-name="afii10084" unicode="&#x442;" horiz-adv-x="400" 
d="M393 467h-152v-467h-83v467h-152v68h387v-68z" />
    <glyph glyph-name="afii10085" unicode="&#x443;" horiz-adv-x="406" 
d="M13 535h90l85 -331q20 -83 24 -123h1q4 53 17 111l78 343h89q-129 -486 -138 -517l-17 -58q-11 -38 -20.5 -59.5t-26 -42.5t-42 -30t-62.5 -9q-17 0 -51 2v69q30 -2 44 -2q52 0 71 53l16 44z" />
    <glyph glyph-name="afii10086" unicode="&#x444;" horiz-adv-x="667" 
d="M635 278q0 -147 -35 -218.5t-121 -71.5q-78 0 -107 60q2 -32 2 -51v-176h-81v176q0 19 2 51q-29 -60 -107 -60q-86 0 -121 71.5t-35 218.5q0 65 6 110t21.5 83t46 57t76.5 19q85 0 115 -72q-4 22 -4 69v168h81v-168q0 -47 -4 -69q30 72 115 72q46 0 76.5 -19t46 -57
t21.5 -83t6 -110zM552 273q0 114 -18 160t-68 46q-70 0 -92 -78v-264q21 -81 88 -81q51 0 70.5 50.5t19.5 166.5zM293 137v264q-22 78 -92 78q-50 0 -68 -46t-18 -160q0 -116 19.5 -166.5t70.5 -50.5q67 0 88 81z" />
    <glyph glyph-name="afii10087" unicode="&#x445;" horiz-adv-x="406" 
d="M13 535h95l79 -158q1 -2 19 -44q6 18 18 43l77 159h91l-139 -258l146 -277h-92l-80 160q-19 41 -25 57q-30 -66 -31 -68l-73 -149h-90l146 277z" />
    <glyph glyph-name="afii10088" unicode="&#x446;" horiz-adv-x="481" 
d="M407 68h65v-211h-80v143h-334v535h83v-467h183v467h83v-467z" />
    <glyph glyph-name="afii10089" unicode="&#x447;" horiz-adv-x="437" 
d="M296 0v220q-56 -13 -100 -13q-70 0 -112 38.5t-42 109.5v180h83v-180q0 -80 84 -80q39 0 87 12v248h83v-535h-83z" />
    <glyph glyph-name="afii10090" unicode="&#x448;" horiz-adv-x="677" 
d="M621 0h-565v535h83v-467h158v467h83v-467h158v467h83v-535z" />
    <glyph glyph-name="afii10091" unicode="&#x449;" horiz-adv-x="695" 
d="M686 -143h-80v143h-550v535h83v-467h158v467h83v-467h158v467h83v-467h65v-211z" />
    <glyph glyph-name="afii10092" unicode="&#x44a;" horiz-adv-x="495" 
d="M128 467h-124v68h207v-201h84q172 0 172 -157q0 -177 -172 -177h-167v467zM382 170q0 54 -26.5 76t-80.5 22h-64v-202h55q61 0 88.5 22t27.5 82z" />
    <glyph glyph-name="afii10093" unicode="&#x44b;" horiz-adv-x="589" 
d="M533 0h-83v535h83v-535zM385 177q0 -177 -172 -177h-157v535h83v-201h74q172 0 172 -157zM300 170q0 54 -26.5 76t-80.5 22h-54v-202h45q61 0 88.5 22t27.5 82z" />
    <glyph glyph-name="afii10094" unicode="&#x44c;" horiz-adv-x="426" 
d="M398 177q0 -177 -172 -177h-167v535h83v-201h84q172 0 172 -157zM313 170q0 54 -26.5 76t-80.5 22h-64v-202h55q61 0 88.5 22t27.5 82z" />
    <glyph glyph-name="afii10095" unicode="&#x44d;" horiz-adv-x="426" 
d="M396 268q0 -281 -185 -281q-87 0 -130 49.5t-46 136.5h81q3 -59 27 -90t65 -31q101 0 104 194h-166v67h165q-4 92 -28.5 131t-74.5 39q-40 0 -64.5 -27t-24.5 -79h-84q2 74 47 122t124 48q48 0 83.5 -15.5t55.5 -40t32 -62.5t15.5 -75t3.5 -86z" />
    <glyph glyph-name="afii10096" unicode="&#x44e;" horiz-adv-x="632" 
d="M221 315q7 113 52.5 172.5t141.5 59.5q97 0 141 -66.5t44 -213.5q0 -148 -46.5 -214t-150.5 -66q-92 0 -136 62.5t-47 198.5h-81v-248h-83v535h83v-220h82zM305 263q0 -106 22 -158.5t82 -52.5q56 0 81 51t25 167q0 115 -23.5 164t-78.5 49q-58 0 -83 -51t-25 -169z" />
    <glyph glyph-name="afii10097" unicode="&#x44f;" horiz-adv-x="444" 
d="M150 231q-48 14 -77.5 53.5t-29.5 95.5q0 78 45.5 116.5t127.5 38.5h170v-535h-83v220h-69l-117 -220h-99zM303 471h-57q-58 0 -88 -19.5t-30 -71.5q0 -96 109 -96h66v187z" />
    <glyph glyph-name="sterling" unicode="&#xa3;" horiz-adv-x="480" 
d="M28 379h69q-49 83 -49 152q0 80 55 129.5t145 49.5q92 0 145.5 -53t53.5 -146v-5h-84q0 66 -30 101.5t-85 35.5q-52 0 -82.5 -28.5t-30.5 -76.5q0 -17 2.5 -32.5t11 -36.5t11.5 -28t18 -35l14 -27h165v-55h-142q14 -41 14 -69q0 -40 -21 -78t-43 -59t-62 -54q53 28 88 28
q26 0 66 -15t63 -15q42 0 105 42l37 -68q-82 -50 -143 -50q-29 0 -86 22q-52 19 -84 19q-39 0 -90 -34l-39 68q58 36 91 85t33 98q0 41 -21 80h-95v55z" />
    <glyph glyph-name="notequal" unicode="&#x2260;" horiz-adv-x="600" 
d="M404 437h146v-60h-178l-76 -141h254v-60h-286l-75 -142l-53 26l62 116h-148v60h180l75 141h-255v60h286l76 141l52 -28z" />
    <glyph glyph-name="infinity" unicode="&#x221e;" horiz-adv-x="738" 
d="M370 336q39 37 57.5 54t58 38t74.5 21q59 0 96.5 -41.5t37.5 -100.5q0 -62 -36.5 -103t-98.5 -41q-35 0 -72.5 18t-60 36.5t-56.5 51.5q-15 -11 -41.5 -34t-43 -36t-45 -24.5t-60.5 -11.5q-61 0 -98.5 40t-37.5 101t37 102.5t97 41.5q82 0 192 -112zM405 303
q32 -28 48 -41t47.5 -29t59.5 -16q36 0 58 25t22 62q0 39 -22 65t-60 26q-11 0 -22 -3t-20.5 -6t-21.5 -10.5t-19 -12.5t-19.5 -15.5t-17.5 -15t-17.5 -15.5t-15.5 -14zM334 303q-102 91 -155 91q-36 0 -58.5 -26.5t-22.5 -63.5q0 -38 23 -62.5t61 -24.5q35 0 77 26.5
t75 59.5z" />
    <glyph glyph-name="lessequal" unicode="&#x2264;" horiz-adv-x="600" 
d="M50 289v59l500 191v-63l-425 -157l425 -159v-62zM550 60v-60h-500v60h500z" />
    <glyph glyph-name="greaterequal" unicode="&#x2265;" horiz-adv-x="600" 
d="M550 348v-60l-500 -190v63l425 157l-425 158v63zM550 60v-60h-500v60h500z" />
    <glyph glyph-name="radical" unicode="&#x221a;" horiz-adv-x="500" 
d="M502 786l-210 -1000h-66l-164 340l-46 -22l-24 50l100 48l158 -332l189 916h63z" />
    <glyph glyph-name="florin" unicode="&#x192;" horiz-adv-x="480" 
d="M128 438h105l17 86q10 50 19.5 78.5t29 55t51.5 37.5t81 11q15 0 47 -3l-14 -66q-15 2 -31 2q-50 0 -70.5 -27t-32.5 -96l-14 -78h109l-10 -56h-110l-74 -384q-18 -95 -54 -136.5t-126 -41.5q-21 0 -50 4l15 66q25 -3 36 -3q47 0 65.5 22.5t32.5 95.5l73 377h-105z" />
    <glyph glyph-name="approxequal" unicode="&#x2248;" horiz-adv-x="600" 
d="M562 458q-7 -63 -39 -98.5t-82 -35.5q-31 0 -80 16l-109 36q-66 22 -91 22q-32 0 -54 -22.5t-27 -59.5h-42q11 62 38 99t84 37q32 0 99 -22l102 -34q54 -18 80 -18q62 0 81 80h40zM562 294q-7 -63 -39 -98.5t-82 -35.5q-31 0 -80 16l-109 36q-66 22 -91 22
q-32 0 -54 -22.5t-27 -59.5h-42q11 62 38 99t84 37q32 0 99 -22l102 -34q54 -18 80 -18q62 0 81 80h40z" />
    <glyph glyph-name="Delta" unicode="&#x2206;" horiz-adv-x="670" 
d="M370 712l287 -712h-642l281 712h74zM106 62h455l-229 583z" />
    <glyph glyph-name="divide" unicode="&#xf7;" horiz-adv-x="600" 
d="M42 336h517v-59h-517v59zM253 200h94v-105h-94v105zM253 520h94v-105h-94v105z" />
    <glyph glyph-name="uni0394" unicode="&#x394;" horiz-adv-x="670" 
d="M370 712l287 -712h-642l281 712h74zM106 62h455l-229 583z" />
    <glyph glyph-name="uni2219" unicode="&#x2219;" horiz-adv-x="240" 
d="M74 353h94v-105h-94v105z" />
    <glyph glyph-name="uniF8FF" unicode="&#xf8ff;" horiz-adv-x="512" 
d="M278 117h-56v67h56v-67zM271 234h-46l-2 17q0 56 13 81q15 28 46 59q31 29 40.5 46t9.5 37q0 36 -22.5 60.5t-53.5 24.5q-71 0 -82 -95l-50 8q7 69 43 103t92 34q54 0 89 -36t35 -95q0 -34 -13 -60t-50 -60q-37 -33 -43 -52q-6 -20 -6 -72zM50 50h412v617h-412v-617z
M0 718h512v-718h-512v718z" />
  </font>
</defs>
</svg>
